<?xml version="1.0" standalone="no"?><!DOCTYPE svg PUBLIC "-//W3C//DTD SVG 1.1//EN" "http://www.w3.org/Graphics/SVG/1.1/DTD/svg11.dtd"><svg t="1631457369275" class="icon" viewBox="0 0 1024 1024" version="1.1" xmlns="http://www.w3.org/2000/svg" p-id="4224" xmlns:xlink="http://www.w3.org/1999/xlink" width="200" height="200"><defs><style type="text/css"></style></defs><path d="M876.0576 769.024c5.12 34.816 34.82624 29.696 39.94624 45.056 0 9.71776-5.12 45.056-19.968 49.664-14.84288 0-34.816-5.12-49.664 0-9.71776 5.12-19.95776 9.72288-25.07776 19.96288-9.728 25.08288 9.71776 45.05088 0 54.77888-14.848 9.728-45.06112 25.088-54.784 14.848-14.84288-14.848-14.84288-34.82112-45.056-34.82112-39.94112 0-39.94112 39.94112-59.904 39.94112s-54.784-14.848-54.784-29.70112c5.12-19.96288 14.848-34.81088-5.12-54.77888-25.088-19.968-54.77888 0-65.01888-9.728-14.84288-9.728-19.96288-34.816-14.84288-49.65888s39.936-14.84288 39.936-54.78912c0-29.69088-34.816-34.81088-39.936-54.77376-5.12-14.848 5.12-39.94624 19.96288-45.06624 25.08288-9.71776 39.93088 9.728 65.01888-9.71776 14.848-14.83776 9.728-49.664 9.728-59.904 5.12-14.84288 25.07776-19.96288 39.936-19.96288 29.696 0 19.96288 34.82112 59.904 39.94112 39.936 0 34.816-14.848 54.77888-39.94112 25.08288 0 45.06112 9.72288 49.65888 19.96288 9.728 19.968-9.71776 49.664 19.968 69.63712 25.07776 14.84288 49.664-5.12 65.024 0 9.72288 5.12 14.84288 19.96288 19.96288 39.94112-9.72288 29.16352-54.78912 24.04352-49.66912 69.10976z m-179.70176-99.84c-119.80288 29.696-74.752 204.28288 39.936 184.832 115.2-25.09824 99.84-209.92-39.936-184.832z m-204.288-174.58688c-119.808 0-214.528-94.72-214.528-214.528s94.72-214.528 214.528-214.528c119.80288 0 214.52288 94.72 214.52288 214.528 0.00512 114.688-94.71488 214.528-214.52288 214.528z m174.592 49.65888s-79.88224 0-74.76224 54.784c5.12 59.904-74.752 14.83776-89.59488 65.024-19.968 59.89376 9.72288 49.65376 25.08288 89.6 9.728 25.08288-39.936 39.936-34.816 84.992 9.728 59.904 59.904 29.70624 74.75712 65.024 9.72288 29.696-25.08288 49.664-104.96 49.664-65.01888 0-189.44 0-234.496-5.12 0 0-129.536-5.12-129.536-89.6 0 0-5.12-124.928 74.752-214.528 0 0 84.992-109.56288 229.38112-109.56288l264.192 9.72288z" fill="#13227a" p-id="4225"></path></svg>