<?xml version="1.0" standalone="no"?><!DOCTYPE svg PUBLIC "-//W3C//DTD SVG 1.1//EN" "http://www.w3.org/Graphics/SVG/1.1/DTD/svg11.dtd"><svg t="1631456976626" class="icon" viewBox="0 0 1024 1024" version="1.1" xmlns="http://www.w3.org/2000/svg" p-id="2368" xmlns:xlink="http://www.w3.org/1999/xlink" width="200" height="200"><defs><style type="text/css"></style></defs><path d="M489.173333 103.189333c0.32 1.493333 0.469333 2.986667 0.469334 4.48v757.632h44.714666v-601.173333a22.357333 22.357333 0 0 1 24.341334-22.250667l2.581333 0.405334 312.896 65.642666c9.493333 2.005333 16.512 9.834667 17.6 19.264l0.170667 2.624v535.509334h84.906666a4.48 4.48 0 0 1 4.48 4.48v66.133333a4.48 4.48 0 0 1-4.48 4.48H47.146667a4.48 4.48 0 0 1-4.48-4.48v-66.133333a4.48 4.48 0 0 1 4.48-4.48l84.906666-0.021334V172.074667c0-10.602667 7.466667-19.754667 17.856-21.888l312.896-64.384a22.357333 22.357333 0 0 1 26.389334 17.386666z m274.837334 446.101334h-118.762667a4.48 4.48 0 0 0-4.48 4.48v35.733333c0 2.453333 2.005333 4.48 4.48 4.48h118.762667a4.48 4.48 0 0 0 4.48-4.48v-35.733333a4.48 4.48 0 0 0-4.48-4.48zM425.6 518.250667h-203.904a4.48 4.48 0 0 0-4.309333 3.285333l-0.170667 1.173333v34.858667a4.48 4.48 0 0 0 3.285333 4.309333l1.194667 0.170667h203.904a4.48 4.48 0 0 0 4.309333-3.285333l0.170667-1.194667v-34.858667a4.48 4.48 0 0 0-4.48-4.48z m-106.410667-131.413334h-97.493333a4.48 4.48 0 0 0-4.309333 3.306667l-0.170667 1.173333v34.858667a4.48 4.48 0 0 0 3.285333 4.309333l1.194667 0.170667h97.493333a4.48 4.48 0 0 0 4.309334-3.285333l0.149333-1.194667v-34.858667a4.48 4.48 0 0 0-4.48-4.48z" fill="#d4237a" p-id="2369"></path></svg>