<svg t="1652233303428" class="icon" viewBox="0 0 1024 1024" version="1.1" xmlns="http://www.w3.org/2000/svg" p-id="3387" width="160" height="160"><path d="M694.741333 277.845333c-1.621333 118.272-92.757333 217.002667-211.370666 225.28-117.248 8.234667-223.744-80.810667-238.378667-196.992-14.976-118.613333 66.901333-225.792 181.973333-250.154666 116.48-24.704 230.656 54.357333 260.906667 166.272 4.906667 18.218667 6.613333 36.778667 6.869333 55.594666 0.426667 32.981333 51.626667 33.024 51.2 0-1.621333-117.12-73.130667-217.514667-181.674666-260.010666C456.106667-24.533333 328.533333 13.866667 255.488 101.802667c-74.837333 90.112-82.432 219.562667-23.210667 319.616 59.776 100.992 179.242667 148.394667 292.522667 127.658666 128.682667-23.594667 219.349333-143.402667 221.141333-271.232 0.426667-33.024-50.773333-32.981333-51.2 0z m245.162667 512.938667a157.653333 157.653333 0 0 1-155.733333 155.733333c-86.186667 1.621333-154.069333-72.064-155.733334-155.733333-1.621333-86.186667 72.106667-154.154667 155.733334-155.733333 86.186667-1.706667 154.112 72.064 155.733333 155.733333 0.64 32.938667 51.84 33.024 51.2 0a209.834667 209.834667 0 0 0-206.933333-206.933333c-114.218667-2.218667-204.8 96-206.933334 206.933333-2.133333 114.218667 96 204.8 206.933334 206.933333 114.261333 2.176 204.8-96.042667 206.933333-206.933333 0.64-33.066667-50.56-32.981333-51.2 0z" fill="#f4ea2a" p-id="3388"></path><path d="M51.498667 974.634667a422.528 422.528 0 0 1 195.370666-353.621334c139.349333-88.832 320.426667-82.261333 457.088 8.234667 27.605333 18.304 53.205333-26.069333 25.813334-44.202667a474.538667 474.538667 0 0 0-503.04-11.733333C86.4 656.938667 1.578667 812.373333 0.298667 974.634667c-0.256 33.024 50.944 32.981333 51.2 0z m657.365333-234.069334l60.501333 130.389334c7.893333 17.024 36.096 16.384 44.202667 0l64.938667-131.584c14.592-29.482667-29.568-55.466667-44.202667-25.813334l-64.938667 131.541334h44.202667l-60.501333-130.346667c-13.866667-29.952-58.026667-3.925333-44.202667 25.813333z" fill="#f4ea2a" p-id="3389"></path></svg>