<svg t="1652233356831" class="icon" viewBox="0 0 1024 1024" version="1.1" xmlns="http://www.w3.org/2000/svg" p-id="3904" width="160" height="160"><path d="M677.474314 334.523691l-24.514713-40.347132c41.368579-25.53616 119.509227-122.062843 130.745137-180.79601 3.064339-14.810973 3.575062-34.729177-9.193017-48.00798-11.23591-11.746633-31.664838-16.343142-57.711721-12.257357-21.450374 3.064339-31.154115 14.810973-42.390025 28.089776-7.660848 9.193017-15.832419 18.896758-28.089775 24.514713-14.810973 7.150125-31.154115 6.639401-49.029427-2.042893-14.300249-6.639401-22.982544-17.875312-31.154115-27.579052-13.789526-16.343142-24.514713-29.111222-58.733167-29.111222-13.789526 0-24.514713 10.725187-40.857855 28.089775-19.918204 20.939651-46.986534 50.050873-90.398005 38.814963-9.703741-2.553616-20.428928-6.639401-32.175561-11.23591-16.853865-7.150125-36.261347-14.810973-51.583043-15.321696-12.257357-0.510723-18.386035 3.575062-24.00399 15.321696-6.639401 14.810973-4.596509 32.686284 5.617956 53.625935 9.703741 19.407481 26.557606 40.857855 50.050872 63.329676 41.368579 40.347132 87.844389 69.458354 87.844389 69.458354l-25.025436 39.836409c-2.042893-1.53217-51.072319-32.175561-96.01596-75.587033-27.068329-26.557606-46.986534-52.093766-59.24389-76.097755-16.853865-33.707731-19.407481-65.372569-6.639402-93.973068 13.278803-30.132668 37.282793-44.943641 69.458354-43.411471 22.982544 1.021446 46.47581 10.725187 66.904738 18.896758 9.703741 4.085786 18.896758 7.660848 26.046883 9.193018 14.810973 3.575062 24.514713-4.596509 44.432918-25.53616C450.202494 23.493267 472.163591 0 507.403491 0c56.179551 0 79.162095 27.579052 94.483791 46.47581 5.617955 6.639401 10.725187 12.76808 14.810972 14.810973 3.064339 1.53217 7.150125 3.064339 8.682295 2.042893 3.064339-1.53217 8.171571-7.150125 12.768079-12.76808 13.278803-15.321696 32.686284-38.304239 71.501247-43.922195 41.368579-6.128678 76.608479 3.064339 98.569576 26.046883 20.428928 21.450374 28.089776 53.115212 21.450374 89.376559-13.278803 74.054863-101.633915 181.306733-152.195511 212.460848z" fill="#4C6070" p-id="3905"></path><path d="M483.910224 291.622943c-9.193017 0-17.875312-5.107232-21.450374-14.30025-0.510723-0.510723-7.660848-16.853865-14.300249-35.750623-13.789526-36.77207-14.810973-50.050873-13.789526-58.222444 1.53217-12.76808 12.76808-22.47182 26.046883-20.939651 12.76808 1.53217 21.961097 12.76808 20.93965 25.53616 0 8.171571 11.746633 41.368579 24.514714 70.4798 5.107232 11.746633 0 26.046883-12.257357 31.154115-3.575062 1.53217-6.639401 2.042893-9.703741 2.042893z m58.733168 14.300249c-6.639401 0-12.76808-2.553616-17.875312-7.660848-8.682294-9.703741-7.660848-24.514713 1.532169-33.197007 1.021446-1.021446 8.682294-11.746633 21.961098-59.754614 7.660848-27.068329 12.76808-52.093766 12.768079-52.604489 2.553616-12.76808 15.321696-20.939651 28.089776-18.386034s20.939651 15.321696 18.386035 28.089775c0 1.021446-6.128678 27.579052-13.789526 57.200998-15.832419 57.200998-26.557606 72.522693-35.239901 80.183541-4.596509 4.085786-10.214464 6.128678-15.832418 6.128678z" fill="#4C6070" p-id="3906"></path><path d="M503.317706 339.630923c-44.432918 0-86.822943 10.214464-126.659352 30.643391-37.282793 18.896758-71.501247 46.47581-102.655361 82.226434-58.222444 66.904738-101.123192 158.834913-121.041397 259.447382-11.746633 58.733167-3.064339 104.187531 26.557606 140.448877 27.068329 33.197007 72.522693 57.711721 134.830923 73.54414 53.115212 13.278803 118.487781 19.918204 194.585536 19.918205 75.587032 0 140.959601-6.639401 194.074813-19.918205 61.797506-15.321696 107.762594-40.347132 135.341646-73.033416 30.643392-36.261347 40.347132-82.226434 30.132668-141.470325-17.364589-99.080299-60.265337-191.521197-122.062843-258.425935-67.415461-74.054863-151.174065-113.380549-243.104239-113.380548z" fill="#FFBD5C" p-id="3907"></path><path d="M510.46783 1024c-199.692768 0-334.012968-40.347132-399.385536-120.01995-41.368579-50.561596-54.647382-115.934165-38.814962-194.074813 23.493267-118.487781 75.076309-227.782544 144.534663-307.455362 80.183541-91.930175 179.774564-140.448878 288.04788-140.448877 114.912718 0 219.100249 48.518703 302.34813 139.938154 73.54414 80.694264 125.127182 190.499751 145.55611 308.987531 13.789526 78.651372-1.021446 143.513217-43.411472 194.074813-66.904738 78.651372-200.714214 118.998504-398.874813 118.998504z m-5.617955-715.012469c-49.029426 0-95.505237 11.23591-139.427431 33.707731-40.857855 20.939651-79.162095 51.583042-112.869826 90.908728-63.840399 73.54414-111.337656 175.178055-133.809476 286.004988-12.76808 64.351122-3.575062 114.912718 29.111222 154.749127 29.621945 36.261347 79.672818 63.329676 148.620449 80.694264 58.733167 14.810973 130.745137 21.961097 214.503741 21.961097 83.24788 0 155.25985-7.660848 213.482294-21.961097 68.436908-16.853865 118.487781-44.432918 149.131172-80.183541 33.707731-39.836409 44.432918-90.908728 33.197007-155.770574-18.896758-109.805486-66.394015-210.928678-134.320199-285.494264-74.054863-81.715711-166.495761-124.616459-267.618953-124.616459z" fill="#4C6070" p-id="3908"></path><path d="M632.01995 716.033915H542.643392v-51.072319h89.376558c12.76808 0 23.493267-10.725187 23.493267-23.493267 0-12.76808-10.725187-23.493267-23.493267-23.493267h-69.458354l81.715711-100.612468c8.171571-10.214464 6.639401-25.025436-3.575063-33.197008s-25.025436-6.639401-33.197007 3.575062l-86.822943 106.741148-97.037406-107.762594c-8.682294-9.703741-23.493267-10.725187-33.197008-1.53217-9.703741 8.682294-10.725187 23.493267-1.532169 33.197008L478.802993 617.975062H400.151621c-12.76808 0-23.493267 10.725187-23.493267 23.493267 0 12.76808 10.725187 23.493267 23.493267 23.493267h95.505237v51.072319H400.151621c-12.76808 0-23.493267 10.725187-23.493267 23.493267s10.725187 23.493267 23.493267 23.493267h95.505237v63.329676c0 12.76808 10.725187 23.493267 23.493267 23.493267s23.493267-10.725187 23.493267-23.493267v-63.329676h89.376558c12.76808 0 23.493267-10.725187 23.493267-23.493267s-10.725187-23.493267-23.493267-23.493267z" fill="#4C6070" p-id="3909"></path></svg>