<?xml version="1.0" standalone="no"?><!DOCTYPE svg PUBLIC "-//W3C//DTD SVG 1.1//EN" "http://www.w3.org/Graphics/SVG/1.1/DTD/svg11.dtd"><svg t="1652232904596" class="icon" viewBox="0 0 1024 1024" version="1.1" xmlns="http://www.w3.org/2000/svg" p-id="1911" xmlns:xlink="http://www.w3.org/1999/xlink" width="160" height="160"><defs><style type="text/css">@font-face { font-family: feedback-iconfont; src: url("//at.alicdn.com/t/font_1031158_u69w8yhxdu.woff2?t=1630033759944") format("woff2"), url("//at.alicdn.com/t/font_1031158_u69w8yhxdu.woff?t=1630033759944") format("woff"), url("//at.alicdn.com/t/font_1031158_u69w8yhxdu.ttf?t=1630033759944") format("truetype"); }
</style></defs><path d="M509.866667 657.066667V874.666667c0 4.266667 2.133333 8.533333 4.266666 10.666666 2.133333 2.133333 6.4 4.266667 10.666667 4.266667h108.8c4.266667 0 8.533333-2.133333 10.666667-4.266667 2.133333-2.133333 4.266667-6.4 4.266666-10.666666V584.533333l-110.933333 96-27.733333-23.466666zM44.8 874.666667c0 4.266667 2.133333 8.533333 4.266667 10.666666 2.133333 2.133333 6.4 4.266667 10.666666 4.266667h108.8c4.266667 0 8.533333-2.133333 10.666667-4.266667 2.133333-2.133333 4.266667-6.4 4.266667-10.666666V652.8L44.8 768v106.666667zM277.333333 573.866667v298.666666c0 4.266667 2.133333 8.533333 4.266667 10.666667 2.133333 2.133333 6.4 4.266667 10.666667 4.266667h108.8c4.266667 0 8.533333-2.133333 10.666666-4.266667 2.133333-2.133333 4.266667-6.4 4.266667-10.666667V576l-68.266667-59.733333-70.4 57.6zM740.266667 874.666667c0 4.266667 2.133333 8.533333 4.266666 10.666666 2.133333 2.133333 6.4 4.266667 10.666667 4.266667h108.8c4.266667 0 8.533333-2.133333 10.666667-4.266667 2.133333-2.133333 4.266667-6.4 4.266666-10.666666V384l-138.666666 119.466667V874.666667zM716.8 130.133333c-2.133333 0-4.266667 2.133333-4.266667 2.133334 0 2.133333 0 4.266667 2.133334 6.4l104.533333 102.4-281.6 245.333333-189.866667-164.266667L44.8 573.866667V682.666667l300.8-251.733334 189.866667 164.266667 341.333333-296.533333 85.333333 85.333333c2.133333 2.133333 4.266667 2.133333 6.4 0 2.133333 0 2.133333-2.133333 2.133334-4.266667V134.4c0-2.133333 0-2.133333-2.133334-4.266667 0 0-2.133333-2.133333-4.266666-2.133333l-247.466667 2.133333z" fill="#1296db" p-id="1912"></path></svg>