<svg t="1652233054224" class="icon" viewBox="0 0 1024 1024" version="1.1" xmlns="http://www.w3.org/2000/svg" p-id="2791" width="160" height="160"><path d="M985.088 391.114105C1010.041263 357.753263 1024 321.266526 1024 282.947368 1024 126.679579 794.758737 0 512 0 229.214316 0 0 126.679579 0 282.947368c0 38.319158 13.958737 74.805895 38.912 108.166737C14.093474 424.232421 0 460.422737 0 498.526316c0 43.493053 18.270316 84.533895 49.987368 121.344C18.216421 656.599579 0 697.613474 0 741.052632 0 897.320421 229.214316 1024 512 1024c282.758737 0 512-126.679579 512-282.947368 0-43.439158-18.324211-84.426105-50.014316-121.182316C1005.702737 583.060211 1024 542.019368 1024 498.526316c0-38.103579-14.093474-74.293895-38.912-107.412211zM970.105263 727.578947h-1.374316c0.538947 4.473263 1.374316 8.919579 1.374316 13.473685 0 126.490947-205.096421 229.052632-458.105263 229.052631S53.894737 867.543579 53.894737 741.052632c0-30.046316 11.749053-58.691368 32.821895-84.965053C178.634105 731.674947 334.767158 781.473684 512 781.473684c200.865684 0 374.272-64.080842 458.105263-157.157052V727.578947z m0-296.421052h-20.210526c13.096421 21.315368 20.210526 43.924211 20.210526 67.368421 0 126.490947-205.096421 229.052632-458.105263 229.052631S53.894737 625.017263 53.894737 498.526316c0-23.444211 7.114105-46.053053 20.210526-67.368421H53.894737v-22.420211C137.754947 501.813895 311.107368 565.894737 512 565.894737c200.865684 0 374.272-64.080842 458.105263-157.157053V431.157895z m-458.105263 80.842105c-253.008842 0-458.105263-102.561684-458.105263-229.052632S258.991158 53.894737 512 53.894737s458.105263 102.561684 458.105263 229.052631S765.008842 512 512 512z" fill="#974EFF" p-id="2792"></path></svg>