<svg id="ae680bcc-2fb6-4ae2-a660-d2ced9e9aad0" data-name="图层 1" xmlns="http://www.w3.org/2000/svg" viewBox="0 0 200 200"><defs><style>.e096cf07-8259-46f5-8074-1c5c8fa6c3ad{}</style></defs><polygon class="e096cf07-8259-46f5-8074-1c5c8fa6c3ad" points="75.63 79.75 70.83 108.83 80.61 108.83 75.81 79.75 75.63 79.75"/><path class="e096cf07-8259-46f5-8074-1c5c8fa6c3ad" d="M132,82.34a5,5,0,0,0-2.31-3,9.54,9.54,0,0,0-4-.72h-3.48v42.82h3.48a9.37,9.37,0,0,0,4-.73,4.85,4.85,0,0,0,2.31-3,24.86,24.86,0,0,0,1-6.53c.15-2.81.24-6.52.24-11.12s-.09-8.33-.24-11.14A25.28,25.28,0,0,0,132,82.34Z"/><path class="e096cf07-8259-46f5-8074-1c5c8fa6c3ad" d="M100,20a80,80,0,1,0,80,80A80,80,0,0,0,100,20ZM84.47,134.26l-1.79-12H68.76l-1.79,12H48.61l16.1-68.52h22l16.37,68.52Zm66.43-21.35a33.07,33.07,0,0,1-2.59,11,17.35,17.35,0,0,1-6.36,7.57c-2.82,1.9-6.77,2.83-11.85,2.83H104.68V65.74H130.1q7.62,0,11.85,2.83a17.37,17.37,0,0,1,6.36,7.58,32.8,32.8,0,0,1,2.59,10.94A171.19,171.19,0,0,1,150.9,112.91Z"/></svg>