<svg id="a9db7707-30dc-4816-b3e7-37d0a80c528a" data-name="å›¾å±‚ 1" xmlns="http://www.w3.org/2000/svg" viewBox="0 0 200 200"><defs><style>.a8b4a158-2a48-4ba6-b555-569f86ba559f{}</style></defs><path id="bafaec7d-a702-4892-be89-f630586ce712" data-name="è”åˆ 35" class="a8b4a158-2a48-4ba6-b555-569f86ba559f" d="M104.2,179.16l-51.11-27v5a3,3,0,0,1-3,3H23c-2,0-3-1-3-2V104.12a3.21,3.21,0,0,1,3-3h26a3,3,0,0,1,3,3v4H80.12a24.76,24.76,0,0,1,19.06,7l4,4a3.44,3.44,0,0,1,1,2h23.09a11.11,11.11,0,0,1,11,11c-1,3-2,5.09-5.05,5.09h-39a3,3,0,0,0-.29,6h41.25a12.44,12.44,0,0,0,12-12.84c0-.06,0-.12,0-.18l18-8.54a15.42,15.42,0,0,1,6.51-1.45h.6a9.59,9.59,0,0,1,7,6h0v-.07A9.9,9.9,0,0,1,173.72,139l-.41.15-1,1-51.11,36A20.62,20.62,0,0,1,109.33,180,16.6,16.6,0,0,1,104.2,179.16Zm28.53-71.94A44.66,44.66,0,0,1,88.15,62.49v-.07a43.67,43.67,0,1,1,44.58,44.83Zm-3.64-25.45c0,2.43,1.22,4.83,3.64,4.83s3.67-2.46,3.67-4.86V78l8.37.09c2.43,0,4.84-1.24,4.84-3.64s-2.44-3.64-4.84-3.64h-8.44V66.06h7.28c2.42,0,4.82-1.24,4.82-3.63s-2.43-3.64-4.82-3.64h-4.83L146,51.52a4.06,4.06,0,0,0,.39-5.74,4.68,4.68,0,0,0-.39-.38,3.79,3.79,0,0,0-5.31-.71,4.34,4.34,0,0,0-.71.71l-7.22,7.27-7.22-7.27a4,4,0,0,0-5.61-.47,4.09,4.09,0,0,0-.46.47,3.91,3.91,0,0,0-.62,5.5,3.64,3.64,0,0,0,.62.62l7.28,7.27h-7.28c-2.42,0-4.81,1.21-4.81,3.64s2.42,3.63,4.81,3.63h9.65v4.85h-9.65c-2.42,0-4.81,1.22-4.81,3.64,0,2.71,2.42,3.63,4.81,3.63l9.62-.06Z"/></svg>