<svg id="e5a7d621-b4f3-466c-8944-addd5d2ef830" data-name="图层 1" xmlns="http://www.w3.org/2000/svg" viewBox="0 0 200 200"><defs><style>.b585392b-7649-4212-8e00-3d5ecc66064f{}</style></defs><path id="a038f8cd-2fef-4637-b128-a1fc9d77feb4" data-name="联合 40" class="b585392b-7649-4212-8e00-3d5ecc66064f" d="M49.09,180A28.48,28.48,0,0,1,20,152.16V61.77A14.23,14.23,0,0,1,34.54,47.86H165.45A14.23,14.23,0,0,1,180,61.77v90.39A28.49,28.49,0,0,1,150.9,180Zm0-27.83c0,4.65,2.4,7,7.28,7H92.74c4.8,0,7.27-2.31,7.27-7s-2.4-6.95-7.27-6.95H56.37Q49.08,145.21,49.09,152.16Zm0-55.64v20.86q0,13.91,14.54,13.9H85.46q14.54,0,14.53-13.9V96.52q0-13.92-14.53-13.91H63.63q-14.52,0-14.54,13.92ZM39,40.87a6.92,6.92,0,0,1-3.74-12.93l10.4-6a15.11,15.11,0,0,1,7.49-2h93.76a15.11,15.11,0,0,1,7.49,2l10.4,6A6.92,6.92,0,0,1,161,40.87Z"/></svg>