<svg id="ba644e0f-b074-4cc8-826a-f288649c989a" data-name="å›¾å±‚ 1" xmlns="http://www.w3.org/2000/svg" viewBox="0 0 200 200"><defs><style>.a8ba3ad2-a0ed-459c-b2e4-0a537ab7e47a{}</style></defs><path id="e2527168-55ab-4749-9bec-3f50619f3508" data-name="è”åˆ 38" class="a8ba3ad2-a0ed-459c-b2e4-0a537ab7e47a" d="M130,149.86a15,15,0,1,1,15,15.59A15.29,15.29,0,0,1,130,149.86Zm-85,0a15,15,0,1,1,15,15.59A15.31,15.31,0,0,1,45,149.86Zm124.48-5.2a25.05,25.05,0,0,0-29-20.36l-.52.1a24.68,24.68,0,0,0-10,4.65V72.88A10.17,10.17,0,0,1,140,62.48H140a9.43,9.43,0,0,1,4.36,1l30,15.15A10.49,10.49,0,0,1,180,88v46.23a10.23,10.23,0,0,1-10,10.39Zm-85,0a24.63,24.63,0,0,0-49,0H30a10.55,10.55,0,0,1-10-11V45.56a10.54,10.54,0,0,1,10-11h80a10.52,10.52,0,0,1,10,11v88.12a10.54,10.54,0,0,1-10,11ZM45,94.73A5.09,5.09,0,0,0,50,100H65.05v6a5,5,0,0,0,10,.38,2.41,2.41,0,0,0,0-.38V100h15a5.21,5.21,0,0,0,0-10.41h-15V79.18h15a5.2,5.2,0,0,0,0-10.39H78.37l9.9-10.29a5.35,5.35,0,0,0,.17-7.36,4.9,4.9,0,0,0-6.91-.34l-.18.17-.16.18L70,62.79,58.84,51.15a4.9,4.9,0,0,0-6.91.33l-.18.22a5.42,5.42,0,0,0,0,6.8l9.89,10.29H50a5.2,5.2,0,0,0,0,10.39H65V89.57H50a5.09,5.09,0,0,0-5,5.16Z"/></svg>