<svg id="f71686ec-6dce-4dc4-9b61-809d053f00fb" data-name="图层 1" xmlns="http://www.w3.org/2000/svg" viewBox="0 0 200 200"><defs><style>.fad824fb-5d00-4f32-b10a-bcdb60f4d17b{}</style></defs><path id="add2cd47-6c11-48f3-adc2-307dc653b6a3" data-name="路径 2083" class="fad824fb-5d00-4f32-b10a-bcdb60f4d17b" d="M104.25,30.57a48.58,48.58,0,1,0,47.89,49.27c0-.23,0-.46,0-.69a48.25,48.25,0,0,0-47.9-48.58ZM42.15,95v1.88A3.88,3.88,0,0,0,46,100.8h2.81a3.89,3.89,0,0,0,3.86-3.92V92.44l0,0,0-.18V66.08a53,53,0,0,1,102.11-3.7v34.5a3.89,3.89,0,0,0,3.85,3.92h2.82a3.89,3.89,0,0,0,3.85-3.92V95.46a17.28,17.28,0,0,0,0-32.62V61.42a3.89,3.89,0,0,0-3.85-3.92h-2.82a58.18,58.18,0,0,0-108.81.14,3.85,3.85,0,0,0-1-.14H46a3.88,3.88,0,0,0-3.84,3.92h0V63.3a18,18,0,0,0,0,31.7Zm97.3,31.33a58.14,58.14,0,0,1-72-.19h-3A44.67,44.67,0,0,0,20,171v1.8A7.15,7.15,0,0,0,27.11,180H172.89a7.14,7.14,0,0,0,7.11-7.17h0V171a44.71,44.71,0,0,0-40.58-44.69Z"/></svg>