<svg id="ac326e8f-afed-4bb6-952e-fb749f01a795" data-name="图层 1" xmlns="http://www.w3.org/2000/svg" viewBox="0 0 200 200"><defs><style>.bbdef825-fc7e-49bc-96bb-62193c3cfe07{}</style></defs><path id="a7dd4730-2302-4ae5-93fd-3d93900060f9" data-name="路径 2040" class="bbdef825-fc7e-49bc-96bb-62193c3cfe07" d="M100,28a30.08,30.08,0,0,1,5.74,59.68v8.06h45.7A11.34,11.34,0,0,1,162.82,107v20a22.89,22.89,0,1,1-11.42,0V110.79a3.8,3.8,0,0,0-3.36-3.74h-42.3v20a22.92,22.92,0,1,1-11.42,0V107.1H52.4a3.79,3.79,0,0,0-3.78,3.32v16.66a22.92,22.92,0,1,1-11.43,0V107.16a11.37,11.37,0,0,1,11.42-11.3H94.29V87.69A30.08,30.08,0,0,1,100,28Z"/></svg>