<svg id="a274c95f-911b-4fdf-9045-b8500059354e" data-name="图层 1" xmlns="http://www.w3.org/2000/svg" viewBox="0 0 200 200"><defs><style>.a7a32dde-fd25-427a-8c4e-8bc710d92edf{}</style></defs><path id="aa975dc3-b2f0-4b51-99f6-06c23a9c70df" data-name="联合 27" class="a7a32dde-fd25-427a-8c4e-8bc710d92edf" d="M36.55,172a17.55,17.55,0,0,1-6.33-1.14,16.65,16.65,0,0,1-5.29-3.2A14.78,14.78,0,0,1,21.32,163,12.64,12.64,0,0,1,20,157.24V76.54a13.63,13.63,0,0,1,4.67-10.4A16.21,16.21,0,0,1,36,61.86H164a16.21,16.21,0,0,1,11.35,4.28A13.63,13.63,0,0,1,180,76.54v22H140a16.43,16.43,0,0,0-11.35,4.21A13.43,13.43,0,0,0,124,113.09a16.67,16.67,0,0,0,1.94,7.44,14.23,14.23,0,0,0,4.67,5,16.43,16.43,0,0,0,9.41,2.26h40v29.43a14.11,14.11,0,0,1-1.15,5.73,13.85,13.85,0,0,1-3.24,4.69,15.21,15.21,0,0,1-5,3.2,16.31,16.31,0,0,1-6.17,1.14Zm97.79-52.43a7.83,7.83,0,0,1-2.28-5.6,7.51,7.51,0,0,1,2.28-5.55,8.21,8.21,0,0,1,11.29,0,7.43,7.43,0,0,1,2.28,5.55,7.89,7.89,0,0,1-7.76,8H140a7.63,7.63,0,0,1-5.63-2.39ZM76,53.89Q85.54,49,94,44.55q7.4-3.82,14.64-7.63c4.8-2.53,8.57-4.5,11.27-5.9a21.49,21.49,0,0,1,11-3,24.75,24.75,0,0,1,8.2,1.65,22.25,22.25,0,0,1,6.7,5L156,53.87Z"/></svg>