<svg id="a897c2da-dcf7-4d61-8bfe-a30170189473" data-name="图层 1" xmlns="http://www.w3.org/2000/svg" viewBox="0 0 200 200"><defs><style>.bd527c02-f888-40b1-85eb-6e2a19c879b7{}</style></defs><path id="b545ab1a-0f41-4dc8-aa1a-4eb98fc399de" data-name="路径 2045" class="bd527c02-f888-40b1-85eb-6e2a19c879b7" d="M109.36,22.25l54,30.05a17.18,17.18,0,0,1,8.64,15v65.36a18.16,18.16,0,0,1-8.64,15l-54,30.05a20.59,20.59,0,0,1-18.72,0l-54-30a17.18,17.18,0,0,1-8.64-15V67.32a18.16,18.16,0,0,1,8.64-15l54-30A20.55,20.55,0,0,1,109.36,22.25Zm20.88,51.83L100,92.11l-30.24-18A7.13,7.13,0,0,0,60,76.53a5.86,5.86,0,0,0-.3.55,7.79,7.79,0,0,0,2.88,9.77l30.24,18v32.3a7.87,7.87,0,0,0,6.48,7.51H100a7,7,0,0,0,7.22-6.67,7.85,7.85,0,0,0,0-.84v-32.3l30.24-18a8.52,8.52,0,0,0,2.88-10.51A7.55,7.55,0,0,0,130.24,74.08Z"/></svg>