<svg id="e6709e38-d233-41ae-9f4f-f36a31c1a50d" data-name="图层 1" xmlns="http://www.w3.org/2000/svg" viewBox="0 0 200 200"><defs><style>.a615f537-59a0-485b-b593-701495969f68{}</style></defs><path class="a615f537-59a0-485b-b593-701495969f68" d="M100,20a80,80,0,1,0,80,80A80,80,0,0,0,100,20Zm-.51,126.84h0a8.25,8.25,0,1,1,8.41-8.25A8.34,8.34,0,0,1,99.49,146.84ZM131.2,90.53a76.44,76.44,0,0,1-14.76,14.87,27.84,27.84,0,0,0-7.27,7.83,26.24,26.24,0,0,0-1.29,10.59H91.08c0-2.41-.07-3.88-.07-4.41A29.32,29.32,0,0,1,93.72,106a40.84,40.84,0,0,1,10.8-11.84,80.8,80.8,0,0,0,9.68-8.62,11.59,11.59,0,0,0,2.44-7.11,11.94,11.94,0,0,0-4.33-9.22,16.88,16.88,0,0,0-11.64-3.85,17.73,17.73,0,0,0-11.81,4,24.23,24.23,0,0,0-6.52,12.2c-.62,3.43-17.18,4.89-17-2.08a28.74,28.74,0,0,1,10-20,35.62,35.62,0,0,1,24.47-8.23,36.87,36.87,0,0,1,25.33,8.33A25.14,25.14,0,0,1,134.62,79a21.34,21.34,0,0,1-3.45,11.58Z"/></svg>