<svg id="f171484a-e754-42a5-8598-adb5ac30cae4" data-name="图层 1" xmlns="http://www.w3.org/2000/svg" viewBox="0 0 200 200"><defs><style>.aba229cc-758e-49aa-be4d-3af34c667138{}</style></defs><path class="aba229cc-758e-49aa-be4d-3af34c667138" d="M160.58,49.45l-40-23.8a40.32,40.32,0,0,0-41.16,0l-40,23.8A39.6,39.6,0,0,0,20,83.46v56.88A39.83,39.83,0,0,0,60,180h80a39.83,39.83,0,0,0,40-39.66V83.46A39.6,39.6,0,0,0,160.58,49.45ZM96,152.23a11.94,11.94,0,0,1-12,11.9H68a11.94,11.94,0,0,1-12-11.9V136.37a12,12,0,0,1,12-11.9H84a12,12,0,0,1,12,11.9Zm0-47.59a12,12,0,0,1-12,11.9H68a12,12,0,0,1-12-11.9V88.77a12,12,0,0,1,12-11.9H84a12,12,0,0,1,12,11.9Zm48,47.59a11.94,11.94,0,0,1-12,11.9H116a11.94,11.94,0,0,1-12-11.9V136.37a12,12,0,0,1,12-11.9h16a12,12,0,0,1,12,11.9Z"/></svg>