<svg id="f8160b54-bbf0-4f6e-aba9-e394419df2a1" data-name="图层 1" xmlns="http://www.w3.org/2000/svg" viewBox="0 0 200 200"><defs><style>.ae44a775-a1fc-4c85-b02c-3c653e4ace63{}</style></defs><path id="a77d08a1-4e87-4c0e-a5c5-083a7ff9ec02" data-name="联合 39" class="ae44a775-a1fc-4c85-b02c-3c653e4ace63" d="M149.07,179.18l-104.72-29a28.12,28.12,0,0,1-18.59-17,85.69,85.69,0,0,1,.42-62.83A82.4,82.4,0,0,1,43.83,43.43,79.12,79.12,0,0,1,70.17,25.72,76.94,76.94,0,0,1,99.29,20h1.8a80.14,80.14,0,0,1,75.4,62.06h-71.1a24.61,24.61,0,0,0-17.73,7.55A26.37,26.37,0,0,0,80.25,108a25.41,25.41,0,0,0,5,15.14,23.94,23.94,0,0,0,12.89,8.83l79.72,23L180,144.59l-2.14,10.33,1,.3v.18a25.07,25.07,0,0,1-2.45,10.87,24.54,24.54,0,0,1-6.83,8.65,23.28,23.28,0,0,1-9.81,4.6,23,23,0,0,1-10.77-.35Zm-48.29-57.24a14,14,0,0,1-7.53-5.16,14.77,14.77,0,0,1-2.92-8.85,15.85,15.85,0,0,1,4.45-11,14.79,14.79,0,0,1,10.61-4.54h73a87.07,87.07,0,0,1,.56,10v42.13Zm1.49-18.81a6.12,6.12,0,0,0-2.07,2.16,6.27,6.27,0,0,0-.75,3,6,6,0,0,0,2.84,5.1,5.52,5.52,0,0,0,5.71,0,5.72,5.72,0,0,0,2.07-2.16,6,6,0,0,0,.76-2.94,5.94,5.94,0,0,0-2.85-5.12,5.56,5.56,0,0,0-2.85-.79A5.64,5.64,0,0,0,102.27,103.13ZM98.34,20h0Z"/></svg>