<svg id="f4e051f3-501d-4d45-bad3-a0271a07bb0c" data-name="图层 1" xmlns="http://www.w3.org/2000/svg" viewBox="0 0 200 200"><defs><style>.fcb191f3-9b69-4961-b003-eed046b65ffd{}</style></defs><path id="b6e4b428-1386-4247-80b6-3b5ef0f7fe06" data-name="联合 34" class="fcb191f3-9b69-4961-b003-eed046b65ffd" d="M125.23,179.11l-6.74-4a7.68,7.68,0,0,1-2.75-10.33c3.57-6.28.67-11.37-6.39-11.37a7.54,7.54,0,0,1-7.41-7.59v-7a7.53,7.53,0,0,1,7.42-7.59c7,0,10-5.1,6.4-11.33a7.73,7.73,0,0,1,2.73-10.4l6.75-3.93a6.29,6.29,0,0,1,8.64,2.11l.11.19,0,.09.42.75c3.57,6.27,9.33,6.27,12.85,0l.42-.75a6.42,6.42,0,0,1,8.7-2.52l.21.12,6.73,3.94a7.65,7.65,0,0,1,2.73,10.33c-3.49,6.27-.61,11.37,6.45,11.37a7.59,7.59,0,0,1,7.45,7.61v7a7.52,7.52,0,0,1-7.42,7.59c-7.06,0-9.94,5.12-6.39,11.38a7.69,7.69,0,0,1-2.73,10.33l-6.75,4a6.46,6.46,0,0,1-8.84-2.29l-.07-.11-.4-.75c-3.55-6.28-9.33-6.28-12.85,0l-.43.75a6.41,6.41,0,0,1-8.7,2.52l-.2-.12Zm3-36.79A12.68,12.68,0,1,0,141,129.37h0a12.86,12.86,0,0,0-12.69,13ZM31.7,179.71a11.83,11.83,0,0,1-11.7-12V119.81a11.86,11.86,0,0,1,11.7-12H78.53a11.86,11.86,0,0,1,11.72,12v47.91a11.84,11.84,0,0,1-11.7,12H31.7ZM119.52,91.9a14,14,0,1,1,0-28h42.92a14,14,0,1,1,0,28Zm-87.82,0A11.86,11.86,0,0,1,20,79.9h0V32A11.83,11.83,0,0,1,31.67,20H78.53A11.84,11.84,0,0,1,90.25,32V79.9a11.86,11.86,0,0,1-11.72,12ZM119.52,48a14,14,0,1,1,0-27.94h42.92a14,14,0,1,1,0,27.94H119.52Z"/></svg>