<svg id="b7396bb5-7848-4286-8b3f-86f3b4375436" data-name="图层 1" xmlns="http://www.w3.org/2000/svg" viewBox="0 0 200 200"><defs><style>.b21f5cce-fd13-4b2c-903c-b30b46fd58b4{}</style></defs><path id="f7e8e635-840f-48c3-adb6-17045fb3fa7c" data-name="联合 45" class="b21f5cce-fd13-4b2c-903c-b30b46fd58b4" d="M115.73,177.41V114.46a2.56,2.56,0,0,1,3.85-2.23l51.9,31.44a2.61,2.61,0,0,1,.86,3.59,2.65,2.65,0,0,1-1.8,1.21l-29.34,4.27a2.49,2.49,0,0,0-1.65,1L120.27,179a2.39,2.39,0,0,1-2,1,2.57,2.57,0,0,1-2.57-2.56Zm-32.38-3.55L43.89,118.58a58.48,58.48,0,0,1,0-81.67,56.08,56.08,0,0,1,79.3-1l1,1A58.36,58.36,0,0,1,130.91,110a1.63,1.63,0,0,1-2.18.5L113,101.36a1.71,1.71,0,0,0-2.32.63,1.9,1.9,0,0,0-.22.87v34.4a1.83,1.83,0,0,1-.31,1L84.74,173.93a.82.82,0,0,1-1.13.22.8.8,0,0,1-.23-.22ZM59.87,69A24.34,24.34,0,1,0,84.2,44.55,24.34,24.34,0,0,0,59.87,69h0Z"/></svg>