<svg id="a3bc7200-5bbb-478e-82ee-2424349546ea" data-name="图层 1" xmlns="http://www.w3.org/2000/svg" viewBox="0 0 200 200"><defs><style>.a13022b9-bf7d-408a-aab7-b65c2f72826d{}</style></defs><path id="b5022a14-7e6c-41f9-94f8-949159b8162c" data-name="联合 32" class="a13022b9-bf7d-408a-aab7-b65c2f72826d" d="M100,180a7.14,7.14,0,0,1-7.12-7.14h0v-6.78a7.13,7.13,0,0,1,2.06-5l46.81-47.27,16.87,16.9-46.74,47.19a7.19,7.19,0,0,1-5.1,2.12ZM50.7,180a23.43,23.43,0,0,1-23.43-23.43h0V43.45A23.45,23.45,0,0,1,50.7,20h89.08a23.47,23.47,0,0,1,23.47,23.45V74.18a7.09,7.09,0,0,1-2,5L85.14,156.92a7.11,7.11,0,0,0-2,5v11A7.14,7.14,0,0,1,76,180H50.7Zm8.55-81.52a9.65,9.65,0,0,0,9.63,9.65H98a9.64,9.64,0,1,0,0-19.27H68.91a9.61,9.61,0,0,0-9.64,9.59v0Zm0-38.77a9.66,9.66,0,0,0,9.66,9.65h48.67a9.65,9.65,0,0,0,.08-19.29H68.91a9.63,9.63,0,0,0-9.64,9.61v0ZM147,109.43l8-8a4.54,4.54,0,0,1,3.13-1.3,4.38,4.38,0,0,1,3.15,1.3l10.12,10.14a4.46,4.46,0,0,1,1.3,3.11,4.37,4.37,0,0,1-1.3,3.1l-7.54,8.49Z"/></svg>