<svg id="b424cdc7-cdbf-4d6f-b9e8-beb1933ce0d0" data-name="图层 1" xmlns="http://www.w3.org/2000/svg" viewBox="0 0 200 200"><defs><style>.a3d9ce34-77d7-4ce2-abfa-b4dff7d805f0{}</style></defs><path class="a3d9ce34-77d7-4ce2-abfa-b4dff7d805f0" d="M171.31,98.87h-19V41.6c0-8.3-6.33-14.33-14.62-14.33H62.27c-8.29,0-14.62,6-14.62,14.33V98.5H29.09a6,6,0,0,0-2.37.37A9,9,0,0,0,20,107.53a8.37,8.37,0,0,0,2.37,6l63.21,54.26a24,24,0,0,0,14.23,4.9,23,23,0,0,0,14.22-4.9l63.6-54.64a12.49,12.49,0,0,0,2.37-5.66C180,103,176.06,99.24,171.31,98.87Zm-52.5,11.84H107.19v5.52c0,.44.07.89.07,1.34A7.19,7.19,0,1,1,93,116.24h-.13v-5.52H81.37a5.5,5.5,0,1,1,0-11h0v0H92.89V94.25H81.37a5.5,5.5,0,1,1,0-11H91.89a2.48,2.48,0,0,1,.49-1L79.46,70c-1.59-1.52-1.07-4.49,1.17-6.63s5.34-2.62,6.94-1.11l12.62,12L111.88,62.4c1.82-1.9,5.5-1.44,7.76.73s3.38,4.13,1.16,6.52L107.21,82.9c0,.12,0,.24,0,.35H118.8a5.5,5.5,0,1,1,0,11H107.19v5.47h11.62a5.5,5.5,0,1,1,0,11Z"/></svg>