<svg id="图层_1" data-name="图层 1" xmlns="http://www.w3.org/2000/svg" viewBox="0 0 200 200"><defs><style>.cls-1{}</style></defs><path class="cls-1" d="M175.33,99.2,144.67,80.39V52.67a9.63,9.63,0,0,0-5.34-8.91L103.67,25a10.36,10.36,0,0,0-9.34.33L60.67,42.77l-3.67,2a6.24,6.24,0,0,0-3.67,5.94V81.38L24.67,99.2A9.39,9.39,0,0,0,20,107.45V147A9.64,9.64,0,0,0,25.33,156L61,174.76a9.41,9.41,0,0,0,9.33,0L100,159.25l29.67,15.51a9.41,9.41,0,0,0,9.33,0L174.67,156A10.39,10.39,0,0,0,180,147V107.45A9.39,9.39,0,0,0,175.33,99.2ZM170,146.71l-37,21.12-33-18.48L67,167.83,30,147v-41.9L62,86.66V53.33L99,32.54l37.33,21.12V86L170,105.14Z"/><polygon class="cls-1" points="41.33 111.41 41.33 140.44 67 154.96 92.67 140.44 92.67 112.73 66 97.55 41.33 111.41"/><polygon class="cls-1" points="107.33 111.74 107.33 140.44 133 154.96 158.67 140.44 158.67 111.41 133.33 97.22 107.33 111.74"/><polygon class="cls-1" points="124.67 59.93 99 45.41 73.33 60.26 73.33 87.98 100 102.83 124.67 88.64 124.67 59.93"/></svg>