<svg id="bd0e4097-df09-4a30-b35a-d141e624ee9b" data-name="图层 1" xmlns="http://www.w3.org/2000/svg" viewBox="0 0 200 200"><defs><style>.b143129d-f519-4778-aeb2-fd653139eba0{}</style></defs><path id="ebe8d80d-91ef-4d77-a182-4d247c15620c" data-name="路径 34" class="b143129d-f519-4778-aeb2-fd653139eba0" d="M71.84,60a7.84,7.84,0,0,1-5.71,4.54L33.27,69.34A16.28,16.28,0,0,0,24.63,96.7l23.64,23.84a8.17,8.17,0,0,1,2.33,7.08L44.86,161.4a15.46,15.46,0,0,0,22.31,16.82L96.4,162.4a6.68,6.68,0,0,1,7-.06l29.4,15.92a15.46,15.46,0,0,0,22.25-16.82l-5.69-33.78a9.29,9.29,0,0,1,2.4-7.22l23.54-23.75a16.27,16.27,0,0,0-8.54-27.37L134,64.51a8.08,8.08,0,0,1-5.79-4.42l-14.53-31a14.88,14.88,0,0,0-27.41,0L71.84,60Z"/></svg>