<svg id="bd83ca31-c5ca-4fb0-ac88-6c499c6264b7" data-name="图层 1" xmlns="http://www.w3.org/2000/svg" viewBox="0 0 200 200"><defs><style>.bcd1cfb2-a16b-4bd7-856c-0e8b1a2c7dcc{}</style></defs><g id="e5dd0dcd-6619-47a8-8474-252d48396f56" data-name="组 215"><path id="a74e67f3-7640-422a-9dac-b5a477621ed1" data-name="路径 118" class="bcd1cfb2-a16b-4bd7-856c-0e8b1a2c7dcc" d="M180,51.74,99.89,20,20,51.74l80.09,33.42Z"/><path id="a0a90478-5776-46e5-8ee0-4963680bd291" data-name="路径 120" class="bcd1cfb2-a16b-4bd7-856c-0e8b1a2c7dcc" d="M20,128.76a25.18,25.18,0,0,0,1.19,7.5,29.32,29.32,0,0,0,3.41,7.2,34.48,34.48,0,0,0,5.29,6.27,25.86,25.86,0,0,0,6.82,4.61q10.41,4.54,20.73,9.08t18.5,8.18L94.34,180V94.07L20,62.36Z"/><path id="e9e85770-7b8f-4cca-9fa4-7542639f7bee" data-name="路径 122" class="bcd1cfb2-a16b-4bd7-856c-0e8b1a2c7dcc" d="M105.44,180q9.6-3.92,19.1-8,8.36-3.5,18.25-7.67l18.94-8a30.82,30.82,0,0,0,6.31-4.44,38.62,38.62,0,0,0,5.88-6.63,39,39,0,0,0,4.35-8,23.52,23.52,0,0,0,1.71-8.8V62.36L105.44,94.07Z"/></g></svg>