<svg id="图层_1" data-name="图层 1" xmlns="http://www.w3.org/2000/svg" viewBox="0 0 200 200"><defs><style>.cls-1{}</style></defs><path class="cls-1" d="M174.68,89.57l-8-9.4A11.37,11.37,0,0,1,164,73.7l-1-12.31A22.25,22.25,0,0,0,142.61,41l-12.32-1a11.35,11.35,0,0,1-6.47-2.68l-9.39-8a22.26,22.26,0,0,0-28.86,0h0l-9.4,8A11.39,11.39,0,0,1,69.7,40L57.39,41A22.25,22.25,0,0,0,37,61.38L36,73.7a11.3,11.3,0,0,1-2.68,6.47l-8,9.4a22.26,22.26,0,0,0,0,28.86l8,9.4A11.36,11.36,0,0,1,36,134.3l1,12.31A22.25,22.25,0,0,0,57.38,167l12.32,1a11.36,11.36,0,0,1,6.47,2.68l9.4,8a22.26,22.26,0,0,0,28.86,0l9.39-8a11.42,11.42,0,0,1,6.47-2.68l12.31-1A22.25,22.25,0,0,0,163,146.62l1-12.32a11.44,11.44,0,0,1,2.69-6.47l8-9.4A22.24,22.24,0,0,0,174.68,89.57ZM67.38,82.24A10.87,10.87,0,1,1,78.25,93.12,10.87,10.87,0,0,1,67.38,82.24Zm54.37,54.38a10.88,10.88,0,1,1,10.87-10.87A10.88,10.88,0,0,1,121.75,136.62Zm9.61-53.47L79,135.49a7.44,7.44,0,1,1-10.35-10.68l52.17-52.17a7.44,7.44,0,0,1,10.52,10.51Z"/></svg>