<svg id="a0905e11-d3e8-4a47-b197-d9341fe55a20" data-name="图层 1" xmlns="http://www.w3.org/2000/svg" viewBox="0 0 200 200"><defs><style>.af260fd0-48c9-464b-aa9d-83acdc92494c{}</style></defs><g id="f0f109e0-d940-4e6f-8c56-48d214673940" data-name="组 34"><path id="b0d8a07a-4d06-40d7-92f0-df6d72ed6950" data-name="路径 31" class="af260fd0-48c9-464b-aa9d-83acdc92494c" d="M156,84H124v96h32a24,24,0,0,0,24-24V108A24,24,0,0,0,156,84Zm4,60a8,8,0,0,1-16,0V120a8,8,0,0,1,16,0Z"/><path id="e9a87f4c-8876-45aa-ae69-6af6dece2535" data-name="路径 32" class="af260fd0-48c9-464b-aa9d-83acdc92494c" d="M92,20H44A24,24,0,0,0,20,44V156a24,24,0,0,0,24,24h72V44A24,24,0,0,0,92,20Zm-8,96H52a8,8,0,0,1,0-16H84a8,8,0,0,1,0,16Zm0-40H52a8,8,0,0,1,0-16H84a8,8,0,0,1,0,16Z"/></g></svg>