<svg id="bc310648-f6f9-4b37-bed4-b9dba2fec928" data-name="图层 1" xmlns="http://www.w3.org/2000/svg" viewBox="0 0 200 200"><defs><style>.a9a5a7f7-ae1d-452e-8995-d6380e2843ef{}</style></defs><g id="ef444d04-fae3-49fc-a86d-ef61a887f5a9" data-name="组 204"><path id="a19c7d83-1380-4cc7-bfc2-644a8c064739" data-name="路径 109" class="a9a5a7f7-ae1d-452e-8995-d6380e2843ef" d="M147.17,20.1H134.8a17.41,17.41,0,0,1,.73,5A16.57,16.57,0,0,1,119.29,42H85A16.58,16.58,0,0,1,68.77,25.11v0A17.54,17.54,0,0,1,69.5,20H52.86A26,26,0,0,0,27.27,46.18V153.82A26,26,0,0,0,52.85,180h94.42a25.87,25.87,0,0,0,25.46-26.11V46.31A26,26,0,0,0,147.17,20.1ZM126.35,128.62H109.24V144a6.42,6.42,0,0,1-12.82-.51V128.62H78.79a6.69,6.69,0,0,1,.5-13.32H96.4v-9.23H78.73a6.67,6.67,0,0,1,.51-13.31H96.4V92L76.32,71.17l-.39-.45a6.79,6.79,0,0,1,.39-9,6.29,6.29,0,0,1,8.9-.18l0,0h0l.15.15,17.16,17.82,17.16-17.82.42-.4a6.28,6.28,0,0,1,8.5.25l.15.15.4.45a6.8,6.8,0,0,1-.4,9L109.23,91.48v1.25h17.15a6.67,6.67,0,0,1-.52,13.31H109.24v9.23h17.61a6.68,6.68,0,0,1-.5,13.32Z"/><path id="fec6756b-2bdb-4cb5-b93a-654a28f7613a" data-name="路径 110" class="a9a5a7f7-ae1d-452e-8995-d6380e2843ef" d="M77,20a10,10,0,0,0-1.36,5.09A9.6,9.6,0,0,0,85,34.87h34.25a9.6,9.6,0,0,0,9.4-9.78,10,10,0,0,0-1.35-5Z"/></g></svg>