<svg id="aea9731c-a816-440b-abf4-27aeceda45be" data-name="图层 1" xmlns="http://www.w3.org/2000/svg" viewBox="0 0 200 200"><defs><style>.e4c808e7-45c3-4956-ad74-796b000325eb{}</style></defs><path id="ff11dc0e-82c7-4f3e-a7b8-40b1b5bcd639" data-name="路径 35" class="e4c808e7-45c3-4956-ad74-796b000325eb" d="M151.58,27.27H48.41A28.79,28.79,0,0,0,20,56.36v87.28a28.8,28.8,0,0,0,28.41,29.09H151.59A28.8,28.8,0,0,0,180,143.64V56.36A28.8,28.8,0,0,0,151.58,27.27ZM64.18,58.12a11.7,11.7,0,1,1-11.42,11.7A11.57,11.57,0,0,1,64.18,58.12ZM163,120.54a8.76,8.76,0,0,1-12.29,1.62,1.84,1.84,0,0,1-.22-.17L121.87,98.72,90.33,125.83a12.49,12.49,0,0,1-17.38-1l-2.19-2.34L49.27,138a8.6,8.6,0,0,1-5.13,1.69,8.79,8.79,0,0,1-7.27-3.85A9.22,9.22,0,0,1,39,123.18L64.1,105a12.54,12.54,0,0,1,16.58,1.69l1.89,2.06L113.63,82a12.51,12.51,0,0,1,16-.22l31.9,25.93a9.26,9.26,0,0,1,1.46,12.8Z"/></svg>