<svg id="bb893222-ab10-4dc3-af9a-5d37b1f32ecf" data-name="图层 1" xmlns="http://www.w3.org/2000/svg" viewBox="0 0 200 200"><defs><style>.fd3e3976-0355-47c9-976a-8d680fbd79e9{}</style></defs><path id="b88f4f2d-3250-4e17-b89b-6c7328d9b2bb" data-name="路径 106" class="fd3e3976-0355-47c9-976a-8d680fbd79e9" d="M165.45,85.27a65.45,65.45,0,0,0-130.9,0,64,64,0,0,0,10.28,34.9h-.22l.73.81A65.39,65.39,0,0,0,59.27,136L100,180l40.73-44A65.39,65.39,0,0,0,154.65,121l.73-.81h-.22A64,64,0,0,0,165.45,85.27ZM100,107.48a21.76,21.76,0,1,1,21.82-21.76A21.79,21.79,0,0,1,100,107.48Z"/></svg>