<svg id="e5b51e5d-a692-4bb3-9156-7d3cc8966cbe" data-name="图层 1" xmlns="http://www.w3.org/2000/svg" viewBox="0 0 200 200"><defs><style>.b73317df-6e98-443f-baa7-8774445926fa{}</style></defs><path id="a7be77a8-567e-4b2f-a6d5-82df74471dad" data-name="路径 130" class="b73317df-6e98-443f-baa7-8774445926fa" d="M143.64,20H56.37a29.09,29.09,0,0,0-29.1,29.09V150.91A29.09,29.09,0,0,0,56.37,180h63.69a21.8,21.8,0,0,0,15.42-6.39l30.86-30.85a21.84,21.84,0,0,0,6.39-15.43V49.09A29.09,29.09,0,0,0,143.64,20ZM100,121.82H63.64a7.28,7.28,0,0,1,0-14.55H100a7.28,7.28,0,1,1,0,14.55Zm36.37-43.64H63.64a7.27,7.27,0,0,1,0-14.54h72.73a7.27,7.27,0,0,1,0,14.54Z"/></svg>