<svg id="a97f1dd9-4ca8-4aad-abc8-fd6d18a4d954" data-name="图层 1" xmlns="http://www.w3.org/2000/svg" viewBox="0 0 200 200"><defs><style>.f40428b5-5bf6-435d-9c89-3973443d60c2{}</style></defs><path id="f3584793-ad9e-4676-9f0b-0489502816c1" data-name="路径 36" class="f40428b5-5bf6-435d-9c89-3973443d60c2" d="M25.24,71.62l-.13.14,68.57,33.75.12-.15a11.47,11.47,0,0,0,12.43,0l.12.15,68.56-33.75-.13-.14A9.67,9.67,0,0,0,180,63.44a9.6,9.6,0,0,0-5.22-8.16l.13-.16L106.35,21.41l-.14.12A11.92,11.92,0,0,0,100,20a12.13,12.13,0,0,0-6.23,1.83l-.09-.15L25.11,55.12l.13.16A9.59,9.59,0,0,0,20,63.44,9.64,9.64,0,0,0,25.24,71.62ZM168.6,90.31a8.53,8.53,0,0,0-6.35,2L100,122.05,37.67,91.8a15.74,15.74,0,0,0-6.21-1.53,9.71,9.71,0,0,0-6.22,18.16l68.44,33.92.12-.16a11.43,11.43,0,0,0,12.43,0l.12.16L174.8,109.4a10.7,10.7,0,0,0,5.2-8.8A11,11,0,0,0,168.6,90.31Zm0,36a8.48,8.48,0,0,0-6.35,2L100,158,37.67,127.8a15.64,15.64,0,0,0-6.22-1.52,9.49,9.49,0,0,0-11.24,7.32,9.16,9.16,0,0,0-.18,2.66,9.59,9.59,0,0,0,5.21,8.16l68.44,33.91.12-.16a11.44,11.44,0,0,0,12.43,0l.12.16,68.45-33a10.64,10.64,0,0,0,5.2-8.8A11,11,0,0,0,168.6,126.26Z"/></svg>