<svg id="f7bcb907-77c3-4530-b682-ce396c13155a" data-name="图层 1" xmlns="http://www.w3.org/2000/svg" viewBox="0 0 200 200"><defs><style>.a32465cd-ad26-482b-b7fc-bfba4f9755c8{}</style></defs><path id="b2b28954-3660-41c3-8060-004fb222af44" data-name="路径 133" class="a32465cd-ad26-482b-b7fc-bfba4f9755c8" d="M174,86.92h0a5.82,5.82,0,0,0,6-5.62V55.12a21.32,21.32,0,0,0-22-20.56H42A21.31,21.31,0,0,0,20,55.13V81.31a5.81,5.81,0,0,0,6,5.61L27.1,87A13.09,13.09,0,0,1,26,113.09l-.72,0A5.76,5.76,0,0,0,20,118.7v26.18a21.32,21.32,0,0,0,22,20.56h117.3A21.21,21.21,0,0,0,180,144.88V118.7a5.83,5.83,0,0,0-6-5.6h-.8a13.5,13.5,0,0,1-13.6-13.4v0A13.64,13.64,0,0,1,174,86.92ZM101.28,125c-3.12,5.18-6.1,7.7-9.11,7.7h0c-3.15,0-5.65-2.64-7.62-8.06L68,79.33a9,9,0,0,1,5.38-11.52,9.39,9.39,0,0,1,3.06-.54h0a9,9,0,0,1,8.46,6l10.67,29.71,18.77-31.58a8.34,8.34,0,0,1,7.17-4.08h0A8.35,8.35,0,0,1,128.64,80Z"/></svg>