<svg id="f65ce636-8a27-4f36-85a6-5553b6271f15" data-name="图层 1" xmlns="http://www.w3.org/2000/svg" viewBox="0 0 200 200"><defs><style>.a28f55d3-b2f3-49fe-bcaf-ee484e7fdde4{}</style></defs><g id="e0f8f214-d85f-4212-a5e1-330cc461c747" data-name="组 218"><path id="f7bc6e1d-1d05-4d61-a5eb-bf3c666b9ffa" data-name="路径 127" class="a28f55d3-b2f3-49fe-bcaf-ee484e7fdde4" d="M120.22,105.18h-6V134.4H121c7.86-.15,12-5,12.5-14.32C133.31,110.32,128.86,105.35,120.22,105.18Z"/><path id="ad236aaf-d745-4471-b607-ea11f8139e9c" data-name="路径 128" class="a28f55d3-b2f3-49fe-bcaf-ee484e7fdde4" d="M70.73,125H83.22L77,105.75Z"/><path id="fdd4baae-1dc2-4878-8346-a907374fd7c3" data-name="路径 129" class="a28f55d3-b2f3-49fe-bcaf-ee484e7fdde4" d="M164.45,67,113,24.73a20.28,20.28,0,0,0-26,0L35.52,67.12A23.19,23.19,0,0,0,27.27,85v79.07a16,16,0,0,0,16,15.92H156.73a16,16,0,0,0,16-15.9V84.9A23.18,23.18,0,0,0,164.45,67ZM93.07,143.62a4.63,4.63,0,0,1-5-3.12l-1.83-6.25H67.85l-2.08,6.25a4.92,4.92,0,0,1-5,3.12c-3,0-4.57-1.35-4.72-4.16v-1.84a1.15,1.15,0,0,0,.23-.56h0l13.53-36.27a7.41,7.41,0,0,1,7-5.45,8.18,8.18,0,0,1,7.28,5.45l13,36.27a11.21,11.21,0,0,0,.56,2.63C97.63,142.33,96,143.62,93.07,143.62Zm27.86-.08H109.48c-3.44-.16-5.2-1.76-5.2-4.88V101a4.89,4.89,0,0,1,4.79-5h11.38c15,.73,22.83,8.81,23.46,24.26a21.82,21.82,0,0,1-20.33,23.21,23.08,23.08,0,0,1-2.63,0Z"/></g></svg>