<svg id="aee26704-c268-46e1-959e-fdba44883fb4" data-name="图层 1" xmlns="http://www.w3.org/2000/svg" viewBox="0 0 200 200"><defs><style>.f0752aca-d851-4308-9420-62a026bde4f4{}</style></defs><path id="ba94b184-ff6e-4549-abe7-8b178ff4dbe3" data-name="路径 132" class="f0752aca-d851-4308-9420-62a026bde4f4" d="M177.13,79.39,142.9,33a14,14,0,0,0-11.21-5.73H68.3A14,14,0,0,0,57.08,33L22.85,79.56A14.74,14.74,0,0,0,24,98.34l66,70,.33.35a13.81,13.81,0,0,0,19.54,0c.13-.12.24-.24.36-.37l65.88-70.14A14.77,14.77,0,0,0,177.13,79.39Zm-41.15,9-30.84,30.85a7.28,7.28,0,0,1-10.29,0L64,88.43a7.27,7.27,0,1,1,9.75-10.79,6,6,0,0,1,.51.5L100,103.85l25.71-25.71A7.27,7.27,0,0,1,136,88.43Z"/></svg>