<svg id="f7732704-82f6-4e35-a500-caf1c4a3843a" data-name="图层 1" xmlns="http://www.w3.org/2000/svg" viewBox="0 0 200 200"><defs><style>.ea9998f8-257d-4735-b621-d0ddbe0c9d28{}</style></defs><g id="ac2d2ae4-a9e7-4314-895e-2201a77f1a94" data-name="组 35"><path id="b5f07d0e-dd7e-43b7-b8da-ac379eb0cb81" data-name="路径 38" class="ea9998f8-257d-4735-b621-d0ddbe0c9d28" d="M170.15,115.09h-.8a70.35,70.35,0,0,0-49.61-57.53,20,20,0,1,0-39.8-2.91,22,22,0,0,0,.28,2.91,70.34,70.34,0,0,0-49.56,57.53h-.81a10.07,10.07,0,0,0,0,20.14H170.18a10.07,10.07,0,0,0,0-20.14ZM89.05,86.55h0a40,40,0,0,0-22.6,16.9,5,5,0,0,1-6.55,2.62h0a5.06,5.06,0,0,1-2.6-6.63,5.73,5.73,0,0,1,.46-.84A50,50,0,0,1,86.39,76.79a4.22,4.22,0,0,1,.77-.22h.06a5.1,5.1,0,0,1,6,4.06h0a5.09,5.09,0,0,1-4,6h-.07Zm20.8-31.1a63.38,63.38,0,0,0-19.73,0c0-.26-.16-.5-.16-.77a10,10,0,0,1,20.05,0A6.57,6.57,0,0,1,109.85,55.45Z"/><path id="eadf574f-e30f-4d2e-8026-a8deda43576f" data-name="路径 39" class="ea9998f8-257d-4735-b621-d0ddbe0c9d28" d="M170.15,145.32H29.82a10.07,10.07,0,0,0,0,20.13H170.15a10.07,10.07,0,0,0,0-20.13Z"/></g></svg>