<svg id="bd798d21-8cbe-465f-85f0-1a3131600bbc" data-name="图层 1" xmlns="http://www.w3.org/2000/svg" viewBox="0 0 200 200"><defs><style>.bdbe8c24-2d7c-4c44-a60d-080d698d9253{}</style></defs><path id="acb8eea5-7ae6-4294-be9d-82ad38be866c" data-name="路径 111" class="bdbe8c24-2d7c-4c44-a60d-080d698d9253" d="M143.64,20H56.36A29.09,29.09,0,0,0,27.27,49.09V150.91A29.09,29.09,0,0,0,56.36,180h87.28a29.09,29.09,0,0,0,29.09-29.09V49.09A29.09,29.09,0,0,0,143.64,20Zm-85,26.47h82.75a5.89,5.89,0,0,1,6,5.72c0,.17,0,.34,0,.52a5.67,5.67,0,0,1-5.08,6.2l-.37,0H58.59a6.24,6.24,0,0,1,0-12.47Zm-6,34.5a6.18,6.18,0,0,1,6-6.24h47.35a6.24,6.24,0,0,1,0,12.47H58.59A6.18,6.18,0,0,1,52.57,81Zm94.86,73.89a5.62,5.62,0,0,1-5.46,5.65H117.81a7,7,0,0,1-6.18-3.32l-13.16-21A7.55,7.55,0,0,1,100.55,126a7,7,0,0,1,9.7,1.9l.18.28,2.18,3.49V110.7a7.15,7.15,0,1,1,14.28-.65c0,.22,0,.43,0,.65v11.39l13.9,1.82a8,8,0,0,1,6.66,7.73Z"/></svg>