<svg id="a77a4d32-cf51-47f1-918f-f17252665373" data-name="图层 1" xmlns="http://www.w3.org/2000/svg" viewBox="0 0 200 200"><defs><style>.b214a0ba-6f47-4593-b036-a77dedb26824{}</style></defs><path id="e3440cf3-e465-434e-90b0-2d750565d01b" data-name="路径 103" class="b214a0ba-6f47-4593-b036-a77dedb26824" d="M165.65,89.68a14.55,14.55,0,0,1-2.8,0l-1.91,9.12c0,9.2-5.59,41-5.59,41H44.92S41.65,108.08,40.77,98l-1.68-9.13a13.59,13.59,0,0,1-4.47.81,14.7,14.7,0,0,1-.55-29.38A14.6,14.6,0,0,1,48.86,74.71a14.77,14.77,0,0,1-1.55,6.9L73.48,91.94,95.59,55.58a14.57,14.57,0,0,1-9.07-18.39,14.32,14.32,0,0,1,18-9.23l.15.05a14.58,14.58,0,0,1,0,27.57l22,36.36,26-10.33a15.09,15.09,0,0,1-1.46-6.22,14.37,14.37,0,1,1,14.37,14.54h0ZM155.35,156a23.93,23.93,0,0,1-24.49,16.63H69.42A25.54,25.54,0,0,1,44.92,156v-4.12H155.43V156Z"/></svg>