<svg id="ed7c9524-9d38-4e60-950c-496f58a7db91" data-name="图层 1" xmlns="http://www.w3.org/2000/svg" viewBox="0 0 200 200"><defs><style>.ecfad72b-23f4-4ce6-a083-16e5ee00a5da{}</style></defs><path id="a857b751-2742-4e08-af3e-f9cb36c11947" data-name="路径 107" class="ecfad72b-23f4-4ce6-a083-16e5ee00a5da" d="M174,86.91a5.82,5.82,0,0,0,6-5.61V55.12a21.31,21.31,0,0,0-22-20.56H42A21.32,21.32,0,0,0,20,55.13V81.31a5.82,5.82,0,0,0,6,5.61,13.09,13.09,0,0,1,0,26.18h0a5.81,5.81,0,0,0-6,5.6v26.18a21.32,21.32,0,0,0,22,20.56H158a21.32,21.32,0,0,0,22-20.57V118.7a5.82,5.82,0,0,0-6-5.61,13.09,13.09,0,0,1,0-26.18ZM120,110a6,6,0,0,1,6,5.65V116a6,6,0,0,1-5.66,6H107v8a6,6,0,0,1-5.65,6H101a6,6,0,0,1-6-5.65V122H80a6,6,0,0,1-6-5.65V116a6,6,0,0,1,5.65-6H95v-8H80a6,6,0,0,1-6-5.65V96a6,6,0,0,1,5.65-6h9.21L75.38,73.82a6,6,0,0,1,.49-8.19l.28-.26a6,6,0,0,1,8.2.48l.25.29L100,84.61l15.39-18.47a6,6,0,0,1,9.46,7.38l-.24.3L111.15,90H120a6,6,0,0,1,6,5.64V96a6,6,0,0,1-5.65,6H107v8Z"/></svg>