<svg id="bb9b8527-0957-4b6f-b63f-d7ba55fb2376" data-name="图层 1" xmlns="http://www.w3.org/2000/svg" viewBox="0 0 200 200"><defs><style>.a4d52314-9fa2-47cc-b6d2-03ad18653230{}</style></defs><path id="a621079a-2cbd-471e-bd21-4d19630488af" data-name="路径 131" class="a4d52314-9fa2-47cc-b6d2-03ad18653230" d="M143.53,20H56.34A29.3,29.3,0,0,0,27.27,49.53h0V174.86a5.09,5.09,0,0,0,9.09,3.19l10.27-13.31a7.17,7.17,0,0,1,9.72,0L70.88,178a7.17,7.17,0,0,0,9.72,0l14.54-13.26a7.17,7.17,0,0,1,9.72,0L119.39,178a7.17,7.17,0,0,0,9.72,0l14.53-13.26a7.17,7.17,0,0,1,9.72,0l10.28,13.31a5.09,5.09,0,0,0,9.09-3.19V49.53A29.3,29.3,0,0,0,143.66,20ZM99.93,121.84H63.6a7.27,7.27,0,0,1,0-14.54H99.93a7.27,7.27,0,0,1,0,14.54ZM136.26,78.2H63.6a7.28,7.28,0,0,1,0-14.55h72.66a7.28,7.28,0,0,1,0,14.55Z"/></svg>