<svg id="ac7d201e-e9b4-4298-a634-cf8836a3390d" data-name="图层 1" xmlns="http://www.w3.org/2000/svg" viewBox="0 0 200 200"><defs><style>.ad328613-5349-4397-952c-5b4cb84534bc{}</style></defs><path id="bfd9104f-8386-47f3-b7b8-99e5cac8ace8" data-name="联合 9" class="ad328613-5349-4397-952c-5b4cb84534bc" d="M102.28,179.83,41.7,169.24a18.43,18.43,0,0,1-14.42-18.3V52.1A18.46,18.46,0,0,1,40.79,34l61-13.78a8.87,8.87,0,0,1,10.71,6.54l.06.26a10.73,10.73,0,0,1,.26,2.18V170.66A9.12,9.12,0,0,1,104,180h0A7.67,7.67,0,0,1,102.28,179.83ZM70.44,100c0,9.68,5.65,17.54,12.67,17.54S95.77,109.67,95.77,100,90.09,82.47,83.11,82.47,70.44,90.31,70.44,100Zm58.8,72.91v-134H155a18.18,18.18,0,0,1,17.77,18.58V154.3A18.18,18.18,0,0,1,155,172.89H129.24Z"/></svg>