<svg id="f1de652f-96f6-4099-944a-9108e4c55d83" data-name="图层 1" xmlns="http://www.w3.org/2000/svg" viewBox="0 0 200 200"><defs><style>.f09fe9ed-1a91-4b69-9168-d762725cfcf1{}</style></defs><path id="bcc3a1c8-e77e-4417-a8be-029c4d4579b9" data-name="联合 21" class="f09fe9ed-1a91-4b69-9168-d762725cfcf1" d="M32.32,180A12.31,12.31,0,0,1,20,167.71V78.46a3.08,3.08,0,0,1,3.09-3.08H176.92A3.09,3.09,0,0,1,180,78.46v89.25A12.3,12.3,0,0,1,167.7,180Zm11.14-28.88a6.66,6.66,0,0,0,6.65,6.67h57.78a6.67,6.67,0,1,0,0-13.34H50.12a6.66,6.66,0,0,0-6.66,6.66Zm0-28.91a6.67,6.67,0,0,0,6.66,6.68H81.23a6.67,6.67,0,1,0,.68-13.33c-.22,0-.46,0-.68,0H50.12a6.67,6.67,0,0,0-6.66,6.66Zm65.78-59.13A3.07,3.07,0,0,1,106.16,60V23.08a3,3,0,0,1,3-3.08h33.7a12.34,12.34,0,0,1,10,5.14l23.62,33.07a3,3,0,0,1,.56,1.77,3.08,3.08,0,0,1-3.07,3.1ZM26,63.08A3.1,3.1,0,0,1,22.91,60a3.15,3.15,0,0,1,.57-1.76L47.1,25.14a12.28,12.28,0,0,1,10-5.14H90.77a3.08,3.08,0,0,1,3.08,3.08V60a3.1,3.1,0,0,1-3.08,3.1Z"/></svg>