<svg id="ebdbe83e-fc39-474f-ab9e-191faca56d5a" data-name="图层 1" xmlns="http://www.w3.org/2000/svg" viewBox="0 0 200 200"><defs><style>.fc455b43-7154-457e-a850-17778029b09e{}</style></defs><path id="ba68a4b8-fa24-4be6-9ef1-f7ca01ea70b2" data-name="联合 22" class="fc455b43-7154-457e-a850-17778029b09e" d="M70.19,180a23.93,23.93,0,0,1-23-17.4l-18.24-64a24,24,0,0,1,16.5-29.66A23.54,23.54,0,0,1,51.94,68H148a24,24,0,0,1,23,30.58l-18.25,64a23.93,23.93,0,0,1-23,17.4ZM120,102a10,10,0,1,0,10-10h0a10,10,0,0,0-10,10v0Zm-60,0A10,10,0,1,0,70,92h0a10,10,0,0,0-10,10Zm69.24-46.8a31.82,31.82,0,0,0-58.43,0,7.94,7.94,0,0,1-7.3,4.8,8.07,8.07,0,0,1-7.39-11.34,48,48,0,0,1,87.81,0A8.08,8.08,0,0,1,136.56,60a8,8,0,0,1-7.34-4.82Z"/></svg>