<svg id="fff59928-089c-4b75-a7c7-19250ea3d6f3" data-name="å›¾å±‚ 1" xmlns="http://www.w3.org/2000/svg" viewBox="0 0 200 200"><defs><style>.ab97a26a-6294-4648-8c8f-00932d654721{}</style></defs><path id="bfb3e266-e9ec-472a-bdc6-0a4ca3b0cd5d" data-name="è”åˆ 25" class="ab97a26a-6294-4648-8c8f-00932d654721" d="M63.64,180a29.08,29.08,0,0,1-29.09-29.09V49.09A29.08,29.08,0,0,1,63.64,20h58.18V49.09a14.55,14.55,0,0,0,14.54,14.55h29.09v87.27A29.08,29.08,0,0,1,136.36,180Zm0-50.91a7.26,7.26,0,0,0,7.27,7.27h58.18a7.27,7.27,0,0,0,0-14.54H70.91A7.26,7.26,0,0,0,63.64,129.09Zm0-36.36A7.27,7.27,0,0,0,70.91,100h58.18a7.28,7.28,0,0,0,0-14.55H70.91A7.27,7.27,0,0,0,63.64,92.73Zm75.64-36.37a10.17,10.17,0,0,1-10.19-10.18h0V21.55a1.53,1.53,0,0,1,2.63-1.09L165,53.73a1.55,1.55,0,0,1,0,2.18,1.57,1.57,0,0,1-1.08.45Z"/></svg>