<svg id="acfde39b-e94e-41a5-80bc-74ba0412e4fd" data-name="图层 1" xmlns="http://www.w3.org/2000/svg" viewBox="0 0 200 200"><defs><style>.bb69e6ac-fd46-4b0a-ab1b-3feb37be32cf{}</style></defs><path id="e9fabd42-3f03-47c9-96e7-be95b64d3fe8" data-name="联合 20" class="bb69e6ac-fd46-4b0a-ab1b-3feb37be32cf" d="M122.22,180a13.34,13.34,0,0,1,0-26.67h44.45a13.34,13.34,0,0,1,0,26.67Zm-84.44,0A17.78,17.78,0,0,1,20,162.22V126.67a17.78,17.78,0,0,1,17.78-17.78H73.33a17.78,17.78,0,0,1,17.78,17.78v35.55A17.78,17.78,0,0,1,73.33,180Zm84.44-44.44a13.34,13.34,0,0,1,0-26.67h44.45a13.34,13.34,0,0,1,0,26.67Zm4.45-44.45a17.78,17.78,0,0,1-17.78-17.78V37.78A17.78,17.78,0,0,1,126.67,20h35.55A17.78,17.78,0,0,1,180,37.78V73.33a17.78,17.78,0,0,1-17.78,17.78Zm-88.89,0A17.78,17.78,0,0,1,20,73.33V37.78A17.78,17.78,0,0,1,37.78,20H73.33A17.78,17.78,0,0,1,91.11,37.78V73.33A17.78,17.78,0,0,1,73.33,91.11Z"/></svg>