<svg id="bdcbfffe-3ed9-467d-92b3-6cf23450f854" data-name="图层 1" xmlns="http://www.w3.org/2000/svg" viewBox="0 0 200 200"><defs><style>.b16853c9-4e92-4b25-a97a-cbd3b0035af5{}</style></defs><path id="b601c520-827b-4b43-baa8-2af49b87b95b" data-name="联合 23" class="b16853c9-4e92-4b25-a97a-cbd3b0035af5" d="M129.09,140a18.18,18.18,0,1,1,18.18,18.18A18.17,18.17,0,0,1,129.09,140Zm-83.64,0a18.19,18.19,0,1,1,18.18,18.18A18.18,18.18,0,0,1,45.45,140Zm43.27-3.64a25.33,25.33,0,0,0-50.18,0h-4A14.54,14.54,0,0,1,20,121.82V56.36A14.54,14.54,0,0,1,34.54,41.82H92.72a14.54,14.54,0,0,1,14.55,14.54v65.46a14.54,14.54,0,0,1-14.55,14.54Zm58.54-21.81a25.46,25.46,0,0,0-24.86,20.1,14.45,14.45,0,0,1-7.86-12.83V70.91a14.55,14.55,0,0,1,14.55-14.55h20.85a14.54,14.54,0,0,1,12.48,7.08l15.5,25.84A14.52,14.52,0,0,1,180,96.76v25.06a14.45,14.45,0,0,1-7.85,12.83,25.47,25.47,0,0,0-24.88-20.1ZM129.08,72.36v23a1.45,1.45,0,0,0,1.45,1.45h32.35a1.44,1.44,0,0,0,1.43-1.48,1.41,1.41,0,0,0-.19-.7L150.36,71.66a1.46,1.46,0,0,0-1.23-.73H130.54a1.45,1.45,0,0,0-1.45,1.43Z"/></svg>