<svg id="ef0a75af-cbe8-4b96-83ac-901d70c8b6ca" data-name="图层 1" xmlns="http://www.w3.org/2000/svg" viewBox="0 0 200 200"><defs><style>.ab72b9ae-81bd-4b92-ad85-72f39abc97cb{}</style></defs><path id="b0547b73-0f01-4386-b103-df12c6c00324" data-name="联合 43" class="ab72b9ae-81bd-4b92-ad85-72f39abc97cb" d="M31.4,180A10.68,10.68,0,0,1,30,158.66a10.29,10.29,0,0,1,1.36,0H168.49A10.68,10.68,0,1,1,169.86,180a10.44,10.44,0,0,1-1.37,0Zm102.8-26.66a5.53,5.53,0,0,1-5.71-5.32V78.71a11.06,11.06,0,0,1,11.42-10.66h22.85a11.07,11.07,0,0,1,11.43,10.66V148a5.53,5.53,0,0,1-5.72,5.32Zm-51.4,0A5.53,5.53,0,0,1,77.09,148V100A11.06,11.06,0,0,1,88.51,89.34h22.85A11.07,11.07,0,0,1,122.79,100v48a5.53,5.53,0,0,1-5.71,5.32Zm-51.4,0A5.53,5.53,0,0,1,25.69,148V121.34a11.06,11.06,0,0,1,11.42-10.65H60a11.06,11.06,0,0,1,11.44,10.65V148a5.52,5.52,0,0,1-5.72,5.32ZM21.61,84.19A10.27,10.27,0,0,1,24.74,70c.26-.16.52-.31.79-.45l57.11-32a12,12,0,0,1,15,2.76l10.79,13.41,53.9-32,.22-.13a11.91,11.91,0,0,1,15.73,3.44,10.25,10.25,0,0,1-2.9,14.21,7.83,7.83,0,0,1-.79.47L111.78,77.05a12,12,0,0,1-15.28-2.6l-11-13.63-48.28,27a11.9,11.9,0,0,1-5.86,1.51,11.65,11.65,0,0,1-9.79-5.17Z"/></svg>