<svg id="a013ef76-cdc0-430e-84e0-df276bcc38f2" data-name="图层 1" xmlns="http://www.w3.org/2000/svg" viewBox="0 0 200 200"><defs><style>.a4cd5aeb-6ed6-45c8-9b5b-3b956df395fc{}</style></defs><path id="fb1543a9-b802-422c-ba35-ef7cacabacac" data-name="联合 42" class="a4cd5aeb-6ed6-45c8-9b5b-3b956df395fc" d="M149,165.43H51a10.14,10.14,0,0,1-1.46-.11,8.24,8.24,0,0,1-6.8-9.45h0a57.69,57.69,0,0,1,35.05-43.18,3.26,3.26,0,0,0,.59-5.74l0,0A39.15,39.15,0,0,1,78,41.11l.42-.26a40,40,0,0,1,54.93,11.68,39.09,39.09,0,0,1-11.38,54.11l-.43.28h0a3.25,3.25,0,0,0-1.06,4.49,3.29,3.29,0,0,0,1.59,1.33,57.65,57.65,0,0,1,35.05,43.14,8.08,8.08,0,0,1,.13,1.39,8.26,8.26,0,0,1-8.32,8.18ZM174.5,151H162.55a57.66,57.66,0,0,0-33.93-38.32,3.27,3.27,0,0,1-1.82-4.26s0,0,0,0a3.24,3.24,0,0,1,1.25-1.51,39.15,39.15,0,0,0,17.1-42,26.19,26.19,0,0,1,19,11.69,25.77,25.77,0,0,1-7.45,35.66l-.28.18a2.39,2.39,0,0,0-.85,1,2.18,2.18,0,0,0,1.18,2.83,37.93,37.93,0,0,1,23.1,28.43,4.23,4.23,0,0,1,.1.94,5.43,5.43,0,0,1-5.45,5.37Zm-149,0a7.3,7.3,0,0,1-.94-.07,5.4,5.4,0,0,1-4.49-6.17v-.07a38,38,0,0,1,23.1-28.47,2,2,0,0,0,1-.8,2.18,2.18,0,0,0-.62-3A25.88,25.88,0,0,1,54.77,64.91,38.8,38.8,0,0,0,60.1,95.19a39.56,39.56,0,0,0,11.81,11.7,3.24,3.24,0,0,1,1,4.46l0,.07a3.42,3.42,0,0,1-1.54,1.22A57.69,57.69,0,0,0,37.43,151Z"/></svg>