<svg id="bc662728-7c4e-46f5-8c07-f58861150326" data-name="图层 1" xmlns="http://www.w3.org/2000/svg" viewBox="0 0 200 200"><defs><style>.fc308e1f-6b41-44a9-918c-b3502514b174{}</style></defs><path class="fc308e1f-6b41-44a9-918c-b3502514b174" d="M156.57,36H122.79a24.22,24.22,0,0,0-45.58,0H43.43A16.13,16.13,0,0,0,27.27,52V164a16.13,16.13,0,0,0,16.16,16H156.57a16.13,16.13,0,0,0,16.16-16V52A16.13,16.13,0,0,0,156.57,36ZM100,36a8,8,0,1,1-8,8A8,8,0,0,1,100,36Zm0,32A24,24,0,1,1,76,92,24,24,0,0,1,100,68Zm48,96H52V152.8c0-16,32-24.8,48-24.8s48,8.8,48,24.8Z"/></svg>