<svg id="aba1efa0-401c-46a1-8846-1747d13d88c2" data-name="图层 1" xmlns="http://www.w3.org/2000/svg" viewBox="0 0 200 200"><defs><style>.a4f8290d-b924-4938-88d7-62abb188f48c{}</style></defs><path class="a4f8290d-b924-4938-88d7-62abb188f48c" d="M132,20H68A48,48,0,0,0,20,68v64a48,48,0,0,0,48,48h64a48,48,0,0,0,48-48V68A48,48,0,0,0,132,20Zm-16.74,90c16.3,10.76,15.74,10,15.09,20.63-.24,4.42-.64,5.95-1.84,6.83-2.25,1.68-54.77,1.68-57,0-1.2-.88-1.6-2.41-1.84-6.83C69,119.91,68.44,120.72,84.74,110c8-5.3,14.46-9.72,14.46-10s-6.51-4.66-14.46-10C68.44,79.28,69,80.09,69.65,69.41c.24-4.42.64-5.95,1.84-6.83,2.25-1.68,54.77-1.68,57,0,1.2.88,1.6,2.41,1.84,6.83.65,10.68,1.21,9.87-15.09,20.63-8,5.3-14.46,9.72-14.46,10S107.31,104.66,115.26,110Z"/></svg>