<svg id="a16514c2-ab2a-470f-901f-e80f429c1eb3" data-name="图层 1" xmlns="http://www.w3.org/2000/svg" viewBox="0 0 200 200"><defs><style>.b11d4906-652e-473d-b787-2913664189de{}</style></defs><path id="a61d7d75-406f-48e8-a620-57d3d597e2e0" data-name="路径 2059" class="b11d4906-652e-473d-b787-2913664189de" d="M46.66,20h40a26.67,26.67,0,0,1,26.67,26.65h0v40a26.68,26.68,0,0,1-26.67,26.68h-40A26.66,26.66,0,0,1,20,86.67h0v-40A26.66,26.66,0,0,1,46.66,20ZM40,126.66H160a20,20,0,0,1,20,20V160a20,20,0,0,1-20,20H40a20,20,0,0,1-20-20V146.66A20,20,0,0,1,40,126.66ZM136.67,20H170a10,10,0,0,1,0,20H136.67a10,10,0,1,1,0-20Zm0,33.34H170a10,10,0,0,1,0,20H136.67a10,10,0,1,1,0-20Zm0,33.32H170a10,10,0,0,1,0,20H136.67a10,10,0,1,1,0-20Z"/></svg>