<svg id="ae439cba-e44c-4bda-a11e-9c56691ff9ff" data-name="图层 1" xmlns="http://www.w3.org/2000/svg" viewBox="0 0 200 200"><defs><style>.a3d5f47d-249e-4de9-a301-98da95544cba{}</style></defs><path class="a3d5f47d-249e-4de9-a301-98da95544cba" d="M146.46,39.32l-77.9,37.9v24.42l-13.63-6.2V71l77.91-37.91-26.2-12a19.76,19.76,0,0,0-12.93,0L29.43,50.62C24.19,53.17,20,59.73,20,65.56v70c0,5.83,4.19,12.75,9.43,14.94l64.28,28.43c3.5,1.45,9.08,1.45,12.23,0l64.63-28.43c5.24-2.19,9.43-9.11,9.43-14.94v-70c0-5.83-4.19-12.39-9.43-14.94.7,0-24.11-11.3-24.11-11.3ZM166,95.08l-3.85,1.82v27.7a4.38,4.38,0,0,1-2.44,3.28l-5.59,2.55c-1.4.73-2.1,0-2.1-1.09V102l-3.49,1.83c-1.75.73-2.8-.37-2.1-2.19l8.74-19.32c1-1.82,3.14-2.91,3.84-1.82l9.08,10.57c1,.73-.35,3.28-2.09,4Zm-37,44.46a3.6,3.6,0,0,1-2.1,2.92l-5.24,2.19c-1,.36-2.1,0-2.1-1.1l-.35-26.24-3.49,1.46c-1.75.73-2.79-.36-1.75-2.19l8-18.22c.7-1.82,2.79-2.92,3.84-1.82l8.39,10.2c.69,1.1-.35,3.28-1.75,4L129,112.57v27Zm43.31-7.65c0,.73-.69,1.46-1,1.46l-60.09,26.24c-.7.36-1.05,0-1.05-.73V156c0-.73.35-1.1,1.05-1.46l60.09-26.61c.7-.36,1,0,1,.73Z"/></svg>