<svg id="e1c32107-2675-4e4a-af97-3c92e537a259" data-name="图层 1" xmlns="http://www.w3.org/2000/svg" viewBox="0 0 200 200"><defs><style>.f9f1f721-5675-431a-89c7-88689b03f92c{}</style></defs><path class="f9f1f721-5675-431a-89c7-88689b03f92c" d="M82.76,24.29C80.09,32.3,72.8,46.7,53,65.8c-34.19,33-38.72,86.12,13.81,112.25,4.31,2.15,7.91.83,10.62-1.82q13.43-13.11,11.67-38.47c-.33-4.66,1.89-5.87,6.28-2.68C107.82,144.11,116,158,116,173c0,5.08,2.17,7.77,7.24,6.85,33.5-6.08,74.32-51,30.33-116.87-2.63-3.35-6.52-3.35-6.46,1.25A62.91,62.91,0,0,1,145,81c-1,3.82-4.83,3.76-5.73,0Q131,46.68,93.53,22.63c-6.75-4.32-9.2-3-10.77,1.67Z"/></svg>