<svg id="a83c334d-d6a2-4d7d-b4cb-bb0710322103" data-name="图层 1" xmlns="http://www.w3.org/2000/svg" viewBox="0 0 200 200"><defs><style>.af6f4b7e-dafc-44fc-9053-ca5965e2da34{}</style></defs><path class="af6f4b7e-dafc-44fc-9053-ca5965e2da34" d="M107.27,173.26V124.19l.08,0v-2.3a11.83,11.83,0,0,1-1.47-2.37,13.06,13.06,0,0,1-1.22-5,27.16,27.16,0,0,1,.28-5,12.91,12.91,0,0,1,1-3.18,10.26,10.26,0,0,1,1.59-2.34,17.22,17.22,0,0,1,2.16-2c.81-.62,1.71-1.37,2.71-2.24a8.91,8.91,0,0,0,2.43-3,29.9,29.9,0,0,0,1.87-4.11q.75-2.25,1.5-5.06a6.11,6.11,0,0,0,3-1.68,14.38,14.38,0,0,0,2.24-3.18,14.83,14.83,0,0,0,1.5-5.43,11.1,11.1,0,0,0-.1-4.4,15.71,15.71,0,0,0-1-2.9,7.1,7.1,0,0,0-1.69-2.06,71.48,71.48,0,0,0-.75-12.72,90.45,90.45,0,0,0-2.9-11.7,33.8,33.8,0,0,0-6.08-11.32q-3.56-4.49-11-8.42a36.09,36.09,0,0,0-17-3.93,53.7,53.7,0,0,0-7.49.56A33.65,33.65,0,0,0,69,22.71a34.15,34.15,0,0,0-7.68,4.4,29.34,29.34,0,0,0-6.73,7.3,34.8,34.8,0,0,0-5,10.57,87,87,0,0,0-2.34,11,79.35,79.35,0,0,0-.56,12.16,11.52,11.52,0,0,0-2.06,3.37,10.59,10.59,0,0,0-.94,3.84,12,12,0,0,0,.75,5,17.75,17.75,0,0,0,2,4.11,10.42,10.42,0,0,0,2,2.25,9.44,9.44,0,0,0,2.25,1.12q.74,2.81,1.49,5.06A38.38,38.38,0,0,0,54,96.91a10.18,10.18,0,0,0,2.34,3.18q2.63,2.07,4.87,4.21a9.1,9.1,0,0,1,2.61,5.9c.13,1.75.19,3.3.19,4.68a9.51,9.51,0,0,1-.84,3.93,13.67,13.67,0,0,1-2.62,3.74,30.34,30.34,0,0,1-5.15,4.12,32.61,32.61,0,0,1-9.82,4.21q-5.52,1.4-10.76,3.27A32.33,32.33,0,0,0,25.69,139q-3.82,3-4.77,9-1.5,10.29-.56,16.84t2.43,7.86a13.75,13.75,0,0,0,4.59,1.59c2.43.56,5.42,1.13,9,1.69s7.45,1.06,11.7,1.49,8.54.85,12.91,1.22,8.58.69,12.63.94,7.64.37,10.76.37,6.74-.12,10.85-.37,8.39-.57,12.82-.94c.41,0,.8-.09,1.21-.13A8.45,8.45,0,0,1,107.27,173.26Z"/><path class="af6f4b7e-dafc-44fc-9053-ca5965e2da34" d="M147.3,163.71H147a124.14,124.14,0,0,1-24-2,30.2,30.2,0,0,1-8.5-2.73v14.32c0,3.72,14.51,6.74,32.43,6.74h.26c18,0,32.63-3.09,32.63-6.81V158.87a35.34,35.34,0,0,1-8.51,2.73,129.94,129.94,0,0,1-24.06,2.11Zm0-22.47H147a125,125,0,0,1-24-2,30.26,30.26,0,0,1-8.5-2.74v14.67c0,3.72,14.51,6.74,32.43,6.74h.26c18,0,32.63-3.08,32.63-6.8v-14.6a31.62,31.62,0,0,1-8.51,2.66,124.23,124.23,0,0,1-24.06,2.1Zm-.19-5.82h.26c18,0,32.63-3.09,32.63-6.81V114c0-3.71-14.51-6.74-32.43-6.74h-.26c-18,0-32.69,3.09-32.69,6.81v14.6C114.68,132.4,129.19,135.42,147.11,135.42Z"/></svg>