<svg id="ef9d4096-f5c3-4ffb-aea0-202da1762a15" data-name="图层 1" xmlns="http://www.w3.org/2000/svg" viewBox="0 0 200 200"><defs><style>.a6a73d6a-7c54-4d8a-876c-65daf036c20a{}</style></defs><path class="a6a73d6a-7c54-4d8a-876c-65daf036c20a" d="M147.67,31.39H58.78A35.56,35.56,0,0,0,23.22,67v71.11a35.56,35.56,0,0,0,35.56,35.56h88.89a35.56,35.56,0,0,0,35.55-35.56V67A35.56,35.56,0,0,0,147.67,31.39Zm11.55,110.72a8.89,8.89,0,0,1-8.89,8.89H56.11a8.89,8.89,0,0,1-8.89-8.89V114.24A8.92,8.92,0,0,1,49.79,108L64.9,92.72a8.9,8.9,0,0,1,12.64,0l27.36,27.65a8.88,8.88,0,0,0,12.64,0l11.36-11.48a8.88,8.88,0,0,1,12.64,0l15.11,15.27a8.86,8.86,0,0,1,2.57,6.25Zm-16-55.77a16.17,16.17,0,1,1,16-16.17A16.08,16.08,0,0,1,143.22,86.34Z"/></svg>