<svg id="b30b20c3-c557-425c-b18c-4ccda304d20a" data-name="图层 1" xmlns="http://www.w3.org/2000/svg" viewBox="0 0 200 200"><defs><style>.b3b0daca-5457-4a31-8c8c-4809b6e085a4{}</style></defs><g id="f52f3861-df79-435c-a07e-5c75b3b16313" data-name="组 214"><path id="b7d3bf8b-94b8-450c-9c67-f7af620c2793" data-name="路径 114" class="b3b0daca-5457-4a31-8c8c-4809b6e085a4" d="M150.91,150.91H49.09a7.27,7.27,0,0,0,0,14.54H150.91a7.27,7.27,0,1,0,0-14.54Z"/><path id="a442c5ab-9d5b-4053-bf2f-45b1a6fdd852" data-name="路径 115" class="b3b0daca-5457-4a31-8c8c-4809b6e085a4" d="M120.22,74.8h-6V104H121c7.85-.14,12-5,12.49-14.33C133.35,79.93,128.87,75,120.22,74.8Z"/><path id="a77ec506-f070-4f05-954c-6c03675b6e3e" data-name="路径 116" class="b3b0daca-5457-4a31-8c8c-4809b6e085a4" d="M70.73,94.67H83.22L77,75.37Z"/><path id="b5707dbf-ed47-4354-b600-f4031da50143" data-name="路径 117" class="b3b0daca-5457-4a31-8c8c-4809b6e085a4" d="M150.91,34.55H49.09A29.08,29.08,0,0,0,20,63.64h0v50.91a29.09,29.09,0,0,0,29.09,29.09H150.91A29.09,29.09,0,0,0,180,114.55V63.64a29.08,29.08,0,0,0-29.09-29.09ZM93.07,113.24a4.64,4.64,0,0,1-5-3.12l-1.83-6.25H67.85l-2.09,6.25a4.94,4.94,0,0,1-5,3.12c-2.95,0-4.56-1.36-4.71-4.16v-1.85a1.15,1.15,0,0,0,.23-.56h0L69.83,70.39A7.42,7.42,0,0,1,76.89,65a8.17,8.17,0,0,1,7.27,5.44l13.08,36.28a10.36,10.36,0,0,0,.56,2.64C97.64,112,96,113.24,93.07,113.24Zm27.86-.08H109.45c-3.44-.16-5.2-1.76-5.2-4.89V70.67a4.88,4.88,0,0,1,4.8-5h11.38c15,.73,22.82,8.81,23.46,24.26a21.81,21.81,0,0,1-20.37,23.17A22.38,22.38,0,0,1,120.93,113.16Z"/></g></svg>