<svg id="ea62cfe7-d553-4089-9405-e1d560c40e54" data-name="图层 1" xmlns="http://www.w3.org/2000/svg" viewBox="0 0 200 200"><defs><style>.e12d942b-6210-4dc5-8ebb-8cc757522b1d{}</style></defs><path id="a60c90d7-a246-49d9-94e0-66e703759a94" data-name="联合 36" class="e12d942b-6210-4dc5-8ebb-8cc757522b1d" d="M35.52,180c-11,0-15.47-13.39-15.47-24.3v-7.28c0,10.91,6.79,13.79,17.77,13.79H162.16c10.9,0,17.77-2.87,17.77-13.79v7.28c0,10.91-4.51,24.3-15.4,24.3Zm2.3-35.55a16.56,16.56,0,0,1-17.77-15.26,15.87,15.87,0,0,1,0-2.58V35.42C20.05,24.52,24.57,20,35.5,20H49.1V36.51a14.54,14.54,0,1,0,14.53,0V20h72.68V36.52a14.55,14.55,0,1,0,14.55,0V20h13.66c10.89,0,15.41,4.52,15.43,15.41v91.2a16.6,16.6,0,0,1-15.29,17.83,15.93,15.93,0,0,1-2.49,0Z"/></svg>