<svg id="b985a24b-0441-42b8-b6d2-0ee4e6d17573" data-name="图层 1" xmlns="http://www.w3.org/2000/svg" viewBox="0 0 200 200"><defs><style>.e288bf07-fd5b-4a35-b214-8e762e645fa4{}</style></defs><path id="be3e9e9f-4b02-412c-a41f-419030da8331" data-name="联合 37" class="e288bf07-fd5b-4a35-b214-8e762e645fa4" d="M141,165.45Zm-121,0V148s2.79-10.67,27.92-15.53c15.82-2.9,18.61-9.68,17.69-20.36,0-2.91-17.69-18.43-14.9-54.29,0,0,2.8-22.31,24.19-23.27h14a27.4,27.4,0,0,1,23.28,23.27s.94,35.86-15.82,54.29c0,0-.92,14.55,19.53,20.36,0,0,19.56,4.87,25.12,13.59v19.39Zm132.32-10.66v-8.73a19.48,19.48,0,0,0-4.65-14.55h24c18.65,13.58,0,23.28,0,23.28Zm-41.93-40.73,11.18-22.3h51.08c15.85,12.61,0,22.3,0,22.3Zm13-39.76a27.82,27.82,0,0,0,0-22.3h48.28s17.71,11.64-.91,22.3Z"/></svg>