<svg id="a3e58542-0675-43e3-a5f0-dccd976ad056" data-name="图层 1" xmlns="http://www.w3.org/2000/svg" viewBox="0 0 200 200"><defs><style>.a82f4168-0eee-4116-8834-83c850bdc45c{}</style></defs><path id="e719d762-2e74-4439-83c1-5ab9bb3e8182" data-name="路径 104" class="a82f4168-0eee-4116-8834-83c850bdc45c" d="M168.84,85.71A15.48,15.48,0,0,0,171.75,70,103.45,103.45,0,0,0,161.38,50.8a13.83,13.83,0,0,0-11.28-5.65,14.27,14.27,0,0,0-3.06.33,20.1,20.1,0,0,1-4.5.51,20.91,20.91,0,0,1-19.89-15A14.78,14.78,0,0,0,110.9,20.66,87.39,87.39,0,0,0,100.18,20a81.62,81.62,0,0,0-10.49.66A14.79,14.79,0,0,0,77.89,31,21,21,0,0,1,58,46a20.12,20.12,0,0,1-4.51-.51,14.36,14.36,0,0,0-3.07-.33,14.74,14.74,0,0,0-11.57,5.66,76.26,76.26,0,0,0-10.61,18.9,15.45,15.45,0,0,0,2.9,15.67,22.2,22.2,0,0,1,0,29,15.43,15.43,0,0,0-2.9,15.66A81.77,81.77,0,0,0,38.87,149a14.19,14.19,0,0,0,14.35,5.32,20.66,20.66,0,0,1,24.39,14.49,14.78,14.78,0,0,0,11.75,10.34A65.11,65.11,0,0,0,100,180c3.48,0,7.16-.28,10.6-.6a14.79,14.79,0,0,0,11.75-10.35,21,21,0,0,1,19.93-15,20.11,20.11,0,0,1,4.5.52,14.09,14.09,0,0,0,2.9.33,14.63,14.63,0,0,0,11.42-5.66,75.82,75.82,0,0,0,10.61-18.91,15.46,15.46,0,0,0-2.91-15.67A22.17,22.17,0,0,1,168.84,85.71ZM100,129.11A29.09,29.09,0,1,1,129.08,100h0A29.08,29.08,0,0,1,100,129.11Z"/></svg>