<svg id="b09d6ffb-30dc-43e4-8ceb-566fa2304f86" data-name="图层 1" xmlns="http://www.w3.org/2000/svg" viewBox="0 0 200 200"><defs><style>.a18baa2a-d9db-4ee9-a63e-25cc3a40807c{}</style></defs><path class="a18baa2a-d9db-4ee9-a63e-25cc3a40807c" d="M138.2,67.56A31.23,31.23,0,0,0,135.35,66a34.41,34.41,0,0,0,8.12-12A36.66,36.66,0,0,0,145,49.32a9.86,9.86,0,0,1,.32-1.3l.09-.32c1.39-8.24-.32-13.65-5.69-18-6.25-5.17-13.81-6.39-22-3.47a28.52,28.52,0,0,0-35.45-.08A22,22,0,0,0,70,25.26C61.25,27,53.2,34.29,54.59,45a37.33,37.33,0,0,0,9.92,21l.17.16A79.75,79.75,0,0,0,20.27,132a72.55,72.55,0,0,0,2,24.38A31.85,31.85,0,0,0,53.05,180c10.9,0,21.7,0,32.53-.17h61.7a30.48,30.48,0,0,0,26.1-13.71,34.47,34.47,0,0,0,5.53-14.69h-.06A80.18,80.18,0,0,0,138.2,67.56Zm-28,61.7a33.9,33.9,0,0,0-10,26.28H100a33.94,33.94,0,0,0-10-26.28,34.34,34.34,0,0,0-22.21-9.94A34.35,34.35,0,0,0,90,109.39a34,34,0,0,0,10-22.22,34.87,34.87,0,0,1,0-4.09,32.84,32.84,0,0,1,0,4.09,34,34,0,0,0,10.13,22.22,34.38,34.38,0,0,0,22.23,9.93A34.34,34.34,0,0,0,110.2,129.26Z"/></svg>