<svg id="eb6e4ded-9ebf-42a1-a65a-8577797d4d9d" data-name="图层 1" xmlns="http://www.w3.org/2000/svg" viewBox="0 0 200 200"><defs><style>.a4c44e7d-5cae-4096-bb76-350cbc723a2c{}</style></defs><path id="ab4150cc-436a-4e0a-8cff-eb8efb466ff6" data-name="路径 2044" class="a4c44e7d-5cae-4096-bb76-350cbc723a2c" d="M161.6,38.4C148.5,24.94,126.54,20.33,100,20c-26.52.36-48.47,5-61.6,18.4C24.94,51.5,20.33,73.45,20,100c.36,26.51,5,48.47,18.4,61.6C51.5,175.06,73.45,179.66,100,180c26.51-.37,48.47-5,61.6-18.4,13.46-13.1,18.06-35.06,18.4-61.6C179.66,73.45,175.06,51.5,161.6,38.4ZM77.83,128.46a8.72,8.72,0,0,1-17.44,0V88.32a8.72,8.72,0,0,1,17.44,0h0Zm30.92,0a8.72,8.72,0,0,1-17.44,0v-57a8.72,8.72,0,0,1,17.44,0h0Zm30.92,0a8.73,8.73,0,1,1-17.45,0h0V103.72a8.73,8.73,0,0,1,17.45,0Z"/></svg>