<svg id="aeb238b6-b2b7-473c-ba88-abf85f9a5436" data-name="图层 1" xmlns="http://www.w3.org/2000/svg" viewBox="0 0 200 200"><defs><style>.e93e5418-8239-4eee-88d8-e988017dc1e6{}</style></defs><path class="e93e5418-8239-4eee-88d8-e988017dc1e6" d="M132.69,113.71H120.3a26.59,26.59,0,0,1-38.1,2.55,30,30,0,0,1-2.49-2.55H67.33a26.06,26.06,0,0,1-26.94,8.46v46a4.22,4.22,0,0,0,1.4,3.46,5.39,5.39,0,0,0,2.64,1.11H150.32l-9.48-7.39a2.73,2.73,0,0,0-1.79-.66,2.6,2.6,0,0,0-1.13.23,19,19,0,0,1-20.32-3.26A22.14,22.14,0,0,1,111,142.16a2.39,2.39,0,0,1,1.45-1.9,2,2,0,0,1,.8-.16,2.35,2.35,0,0,1,1.5.55l7.81,6.94a6,6,0,0,0,8.61-.55,1.15,1.15,0,0,0,.14-.17,6.7,6.7,0,0,0,.42-.55l.05-.08a6.94,6.94,0,0,0-1.43-8.79l-7.81-6.91a2.42,2.42,0,0,1-.78-2.14,2.45,2.45,0,0,1,1.34-1.88,18.17,18.17,0,0,1,19.65,3.27l0,.05a21.07,21.07,0,0,1,6.83,20.76,3,3,0,0,0,.91,2.93l.08.06,9,7V122.17A26.07,26.07,0,0,1,132.69,113.71Z"/><path class="e93e5418-8239-4eee-88d8-e988017dc1e6" d="M151.23,27.27H46.85a10,10,0,0,0-9.49,6.83L20,86.07c0,15.27,12,27.67,27,27.7A27.18,27.18,0,0,0,73.52,91.64a27.07,27.07,0,0,0,32,21.43,27.36,27.36,0,0,0,21-21.43c3.09,14.94,17.44,24.5,32.05,21.34A27.52,27.52,0,0,0,180,86.07L160.61,33.79A10,10,0,0,0,151.23,27.27Z"/></svg>