<svg id="b5e1e265-c732-4f27-99d8-5fe11d482c66" data-name="å›¾å±‚ 1" xmlns="http://www.w3.org/2000/svg" viewBox="0 0 200 200"><defs><style>.a3e4d8e1-36f2-4f2f-8757-306b2299bd80{}</style></defs><path id="b00f2a5f-b256-4377-b730-468b1c74d399" data-name="è”åˆ 33" class="a3e4d8e1-36f2-4f2f-8757-306b2299bd80" d="M105.86,180V94.41h65.8v72a13.82,13.82,0,0,1-14,13.56Zm-63.6,0a13.81,13.81,0,0,1-14-13.54v-72H94V180ZM20,83.31V59a8.8,8.8,0,0,1,8.93-8.66H53.47L50.1,46.2h0a9.68,9.68,0,0,1,1.24-13.63l.36-.29,13.11-10a10.52,10.52,0,0,1,14.46,1.48l20.42,24.7,20.44-24.8a10.51,10.51,0,0,1,14.44-1.48l13.08,10a9.67,9.67,0,0,1,1.92,13.54l-.32.4-3.38,4.1H171a8.8,8.8,0,0,1,9,8.63h0V83.31Z"/></svg>