<svg id="ffae51ec-88f1-4b74-9855-a0274b824cae" data-name="图层 1" xmlns="http://www.w3.org/2000/svg" viewBox="0 0 200 200"><defs><style>.a52c4d6f-3d1e-4c63-9840-e4fd7dfe7556{}</style></defs><path class="a52c4d6f-3d1e-4c63-9840-e4fd7dfe7556" d="M150.91,20H49.09C37,20,27.27,29.52,27.27,41.27V158.71c0,15,15.59,25.34,29.92,19.75L91.9,164.93a22.31,22.31,0,0,1,16.2,0l34.71,13.53c14.33,5.59,29.92-4.7,29.92-19.75V41.27C172.73,29.52,163,20,150.91,20ZM134.25,91.22,123.55,102a4.21,4.21,0,0,0-1.09,3.28l2.59,15.35a7,7,0,0,1-10.12,7.65l-13.36-7.24a3,3,0,0,0-3.21,0l-13.28,7.19a7,7,0,0,1-10.14-7.64l2.61-15.36a3.74,3.74,0,0,0-1.06-3.22L65.74,91.23a7.4,7.4,0,0,1,3.93-12.44L84.61,76.6a3.51,3.51,0,0,0,2.59-2.06h0l6.57-14a6.76,6.76,0,0,1,12.46,0l6.6,14.09a3.7,3.7,0,0,0,2.64,2l14.9,2.18a7.39,7.39,0,0,1,3.88,12.44Z"/></svg>