<?xml version="1.0" standalone="no"?><!DOCTYPE svg PUBLIC "-//W3C//DTD SVG 1.1//EN" "http://www.w3.org/Graphics/SVG/1.1/DTD/svg11.dtd"><svg t="1688378060664" class="icon" viewBox="0 0 1024 1024" version="1.1" xmlns="http://www.w3.org/2000/svg" p-id="3706" xmlns:xlink="http://www.w3.org/1999/xlink" width="200" height="200"><path d="M353.28 806.4h56.9856a127.0784 127.0784 0 0 0 237.5168 0h56.9344a181.4016 181.4016 0 0 1-351.488 0z m-102.4-45.5168a84.8896 84.8896 0 0 1-73.728-128.6144l33.3824-54.9888a120.1152 120.1152 0 0 0 17.5616-62.3104V421.0688a299.2128 299.2128 0 0 1 301.1584-297.3184h9.1136a307.2 307.2 0 0 1 291.84 309.4016v81.408a119.3472 119.3472 0 0 0 17.5616 62.3104l33.3824 55.04a84.992 84.992 0 0 1-73.8816 128.6144z m31.8976-339.8144v93.8496a175.0528 175.0528 0 0 1-25.6 90.7264L223.7952 660.48a28.5696 28.5696 0 0 0-0.512 29.9008A31.1296 31.1296 0 0 0 250.88 706.56h556.288a30.72 30.72 0 0 0 27.5968-15.872 28.5696 28.5696 0 0 0-0.5632-29.9008l-33.3824-54.9888a174.6944 174.6944 0 0 1-25.344-90.624V433.5104a252.672 252.672 0 0 0-238.7456-254.8224h-7.68A244.7872 244.7872 0 0 0 282.624 421.0688z"  p-id="3707"></path></svg>