<svg id="b4d1f686-b28c-4445-863d-1229e6e84d3c" data-name="图层 1" xmlns="http://www.w3.org/2000/svg" viewBox="0 0 200 200"><defs><style>.bf524df1-befa-494a-97b6-6a9aead2f305{}</style></defs><path id="a9a64a0b-ac55-42be-989f-33a6e24df536" data-name="路径 150" class="bf524df1-befa-494a-97b6-6a9aead2f305" d="M172.24,84.36A54.33,54.33,0,0,1,165.1,73,55.6,55.6,0,0,1,162,59.51a29.07,29.07,0,0,0-5.44-16.08A28.72,28.72,0,0,0,140.44,38a59.09,59.09,0,0,1-13.51-3.08,54.57,54.57,0,0,1-11.33-7.16A28.58,28.58,0,0,0,100,20a28.71,28.71,0,0,0-15.64,7.77A54.92,54.92,0,0,1,73,34.93,55.11,55.11,0,0,1,59.48,38a29,29,0,0,0-16.09,5.42A28.6,28.6,0,0,0,38,59.51,58.1,58.1,0,0,1,34.89,73a55.53,55.53,0,0,1-7.16,11.33A28.72,28.72,0,0,0,20,100a28.64,28.64,0,0,0,7.73,15.66A53.5,53.5,0,0,1,34.89,127,56.06,56.06,0,0,1,38,140.49a28.46,28.46,0,0,0,5.38,16.09A28.82,28.82,0,0,0,59.48,162,59.34,59.34,0,0,1,73,165.11a55.19,55.19,0,0,1,11.32,7.16A28.86,28.86,0,0,0,100,180a28.76,28.76,0,0,0,15.63-7.73,53.11,53.11,0,0,1,11.33-7.16A57.52,57.52,0,0,1,140.44,162a28.48,28.48,0,0,0,16.08-5.41A28.92,28.92,0,0,0,162,140.49,57.3,57.3,0,0,1,165.1,127a51.38,51.38,0,0,1,7.14-11.27A29,29,0,0,0,180,100,28.67,28.67,0,0,0,172.24,84.36Zm-65.38,44.73H91L65.59,70.91H86.9l.8,2.18q5.7,15.51,11.57,31L113,70.92h21.37Z"/></svg>