<svg id="f92f8886-209b-4558-aa4c-0dece4130307" data-name="图层 1" xmlns="http://www.w3.org/2000/svg" viewBox="0 0 200 200"><defs><style>.a4b56427-660e-401c-afc8-6c977a0fd6b2{}</style></defs><path id="a19fe327-2b6f-4936-b32a-f9733ee3a50c" data-name="联合 17" class="a4b56427-660e-401c-afc8-6c977a0fd6b2" d="M47.15,172a11.73,11.73,0,0,1-11.72-11.73V109.65a35.6,35.6,0,0,0,36.79-5.43,3.81,3.81,0,0,1,4.92,0,35.66,35.66,0,0,0,45.73,0,3.81,3.81,0,0,1,4.92,0,35.46,35.46,0,0,0,22.86,8.29,35.84,35.84,0,0,0,14-2.86v50.62A11.73,11.73,0,0,1,152.9,172Zm4.28-39.13v13.59a7.2,7.2,0,0,0,14.4.22V132.87a7.2,7.2,0,1,0-14.4-.22ZM48.11,104A29.33,29.33,0,0,1,22,89.25a17.85,17.85,0,0,1,.09-16.43l6.48-13L41.28,34.66A12.6,12.6,0,0,1,52.76,28H146a12.72,12.72,0,0,1,11.37,6.4L170.6,59l7.09,13.53A17.81,17.81,0,0,1,178,89.37,29.37,29.37,0,0,1,152,104a30.08,30.08,0,0,1-23.2-10.49,3.19,3.19,0,0,0-.8-.71,3.65,3.65,0,0,0-4.7.71,30.93,30.93,0,0,1-43.66,2.73,29.42,29.42,0,0,1-2.74-2.73,3.19,3.19,0,0,0-.8-.71,3.67,3.67,0,0,0-4.72.71A29.79,29.79,0,0,1,48.23,104Z"/></svg>