<svg id="图层_1" data-name="图层 1" xmlns="http://www.w3.org/2000/svg" viewBox="0 0 200 200"><defs><style>.cls-1{}</style></defs><path class="cls-1" d="M172.27,124V45.74a17.93,17.93,0,0,0-18-17.74H45.76a17.93,17.93,0,0,0-18,17.74V124Zm-59-39.32h28a6,6,0,0,1,0,12h-28a6,6,0,0,1-6-6h0v0A6,6,0,0,1,113.28,84.68ZM52.7,65.91v0a6,6,0,0,1,6-6h44a6,6,0,0,1,0,12h-44a6,6,0,0,1-6-6Z"/><path class="cls-1" d="M175.51,136h-151l-3.83,13.46a18.12,18.12,0,0,0-.65,5A17.8,17.8,0,0,0,38,172H162a17.77,17.77,0,0,0,17.32-22.54Z"/></svg>