<svg id="f422ee8b-e339-4581-b91d-765147ada835" data-name="图层 1" xmlns="http://www.w3.org/2000/svg" viewBox="0 0 200 200"><defs><style>.aa11be7f-9f5c-4504-aa50-c7df81b6a0db{}</style></defs><path id="e43d98d6-067d-48f0-aca0-fc6f48134f3c" data-name="路径 145" class="aa11be7f-9f5c-4504-aa50-c7df81b6a0db" d="M158.2,20.42,118.3,20a16.23,16.23,0,0,0-9.79,4.6L24.68,108.42a19.14,19.14,0,0,0,1.79,26.88l38.21,38.2a19.13,19.13,0,0,0,26.9,1.83L175.4,91.52a16.32,16.32,0,0,0,4.6-9.78l-.41-39.91A22.27,22.27,0,0,0,158.2,20.42Zm-5.7,55.36a20,20,0,1,1,0-28.28h0a20,20,0,0,1,.07,28.28.1.1,0,0,1-.07,0Z"/></svg>