<svg id="ba456644-aae9-4fec-80a7-2c81e9828942" data-name="图层 1" xmlns="http://www.w3.org/2000/svg" viewBox="0 0 200 200"><defs></defs><path id="eed87f18-3060-4460-80eb-ee1f7eb0d646" data-name="联合 16" class="a85ae9a8-34e6-4d22-b7a1-d92b44feb65e" d="M115.68,180a6.81,6.81,0,0,1-6.81-6.82v-39.7a6.81,6.81,0,0,1,6.81-6.82h57.51a6.81,6.81,0,0,1,6.81,6.82v39.7a6.81,6.81,0,0,1-6.81,6.82Zm-89,0A6.7,6.7,0,0,1,20,173.3h0V97.82a6.73,6.73,0,0,1,6.71-6.72H84.4a6.73,6.73,0,0,1,6.71,6.72v75.47a6.71,6.71,0,0,1-6.7,6.71H26.71Zm88.87-71.1a6.74,6.74,0,0,1-6.71-6.71V26.72A6.72,6.72,0,0,1,115.58,20h57.71A6.72,6.72,0,0,1,180,26.72v75.47a6.74,6.74,0,0,1-6.71,6.71ZM26.79,73.34A6.8,6.8,0,0,1,20,66.52V26.82A6.8,6.8,0,0,1,26.79,20h57.5a6.82,6.82,0,0,1,6.82,6.82v39.7a6.82,6.82,0,0,1-6.82,6.82Z"/></svg>