<svg id="b65ff61b-101e-47d2-99be-ffd3eb613432" data-name="图层 1" xmlns="http://www.w3.org/2000/svg" viewBox="0 0 200 200"><defs><style>.b0da5b7d-0622-432b-a460-affb567ef11d{}</style></defs><g id="e335231d-6b90-4e7e-a405-5dce7876c322" data-name="组 224"><path id="fae35d71-f775-478c-974f-78364db6e0a2" data-name="路径 135" class="b0da5b7d-0622-432b-a460-affb567ef11d" d="M162,54.54H141V46.9a18.79,18.79,0,0,0-17.93-19.62H77A18.79,18.79,0,0,0,59,46.82v8.81H38A18.81,18.81,0,0,0,20,75.22v25.55c11,0,22-1.1,33-1.1a9,9,0,0,1,8-8.73h0a8.22,8.22,0,0,1,8,8.45h0a1.22,1.22,0,0,1,0,.27h62a9,9,0,0,1,8-8.72,8.2,8.2,0,0,1,8,8.41v0a1.13,1.13,0,0,1,0,.26h33V74.17a18.79,18.79,0,0,0-17.92-19.63ZM126.85,49v6.64H73.15V49a7.14,7.14,0,0,1,6.64-7.62h40.06a7.16,7.16,0,0,1,7,7.31A1.06,1.06,0,0,1,126.85,49Z"/><path id="fb8f5ebf-ce1c-4544-94c9-cdb417478fff" data-name="路径 136" class="b0da5b7d-0622-432b-a460-affb567ef11d" d="M147,111.65v8.73a8,8,0,0,1-16,1.52,7.72,7.72,0,0,1,0-1.52v-8.73H69v8.73a8,8,0,0,1-16,1.52,6.44,6.44,0,0,1,0-1.52v-8.73H20V153.1a18.78,18.78,0,0,0,17.92,19.62H162a18.79,18.79,0,0,0,18-19.55V111.65Z"/></g></svg>