<svg id="fdaff9d8-20bc-4cdd-b98e-d3415ff5c120" data-name="图层 1" xmlns="http://www.w3.org/2000/svg" viewBox="0 0 200 200"><defs><style>.f5353bec-0330-4d70-b7c7-c6d44976ea46{}</style></defs><path id="f540d83f-f84f-453c-8724-4f3e3f90fde3" data-name="路径 144" class="f5353bec-0330-4d70-b7c7-c6d44976ea46" d="M179.3,102.9a6.16,6.16,0,0,0-2.57-8.25l-22-11.76,22-11.84a6.77,6.77,0,0,0,2.57-2.47,6.16,6.16,0,0,0-2.57-8.28L102.9,20.72a6.2,6.2,0,0,0-5.8,0L23.28,60.26a6.07,6.07,0,0,0,0,10.74l22,11.84-22,11.81a6.79,6.79,0,0,0-2.58,2.44,6.24,6.24,0,0,0,2.58,8.35l22,11.84L23.28,129a6.29,6.29,0,0,0-2.58,2.48,6.19,6.19,0,0,0,2.58,8.32L97.1,179.3a6.38,6.38,0,0,0,5.8,0l73.83-39.51a6.07,6.07,0,0,0,2.57-2.52,6.15,6.15,0,0,0-2.57-8.28l-22-11.71,22-11.83A6.84,6.84,0,0,0,179.3,102.9ZM100,132.57C79.76,121.73,59.37,110.9,39.13,100L58.24,89.75,97.1,110.54a5.53,5.53,0,0,0,2,.7h.17l.52.08h.48l.57-.08h.13a5.3,5.3,0,0,0,2-.7l38.86-20.79L160.88,100Q130.49,116.37,100,132.57Z"/></svg>