<?xml version="1.0" standalone="no"?><!DOCTYPE svg PUBLIC "-//W3C//DTD SVG 1.1//EN" "http://www.w3.org/Graphics/SVG/1.1/DTD/svg11.dtd"><svg t="1688378057223" class="icon" viewBox="0 0 1024 1024" version="1.1" xmlns="http://www.w3.org/2000/svg" p-id="3559" xmlns:xlink="http://www.w3.org/1999/xlink" width="200" height="200"><path d="M778.24 260.2496v-45.5168a91.0336 91.0336 0 0 0-91.0336-90.9824H414.1056A91.0336 91.0336 0 0 0 323.072 214.7328v45.5168a182.0672 182.0672 0 0 0-182.0672 182.0672v318.5664a182.0672 182.0672 0 0 0 182.0672 182.0672H778.24a182.016 182.016 0 0 0 182.016-182.0672V442.3168A182.016 182.016 0 0 0 778.24 260.2496z m-400.5376-45.5168a36.4032 36.4032 0 0 1 36.4032-36.4032h273.0496a36.4032 36.4032 0 0 1 36.4032 36.4032v45.5168H377.7024z m527.9232 546.1504A127.4368 127.4368 0 0 1 778.24 888.32H323.072a127.4368 127.4368 0 0 1-127.4368-127.4368v-218.4704h241.2032v81.92a45.5168 45.5168 0 0 0 45.5168 45.5168h136.5504a45.5168 45.5168 0 0 0 45.5168-45.5168v-81.92h241.2032zM491.52 615.2704v-163.84h118.272v163.84z m172.9536-127.4368v-45.5168a45.5168 45.5168 0 0 0-45.5168-45.5168H482.3552a45.5168 45.5168 0 0 0-45.5168 45.5168v45.5168H195.6352v-45.5168A127.4368 127.4368 0 0 1 323.072 314.88H778.24a127.4368 127.4368 0 0 1 127.4368 127.4368v45.5168z"  p-id="3560"></path></svg>