<svg id="a4625a40-9880-4b18-8592-2780c18da699" data-name="图层 1" xmlns="http://www.w3.org/2000/svg" viewBox="0 0 200 200"><defs><style>.f6c3a449-4ed8-4872-97e1-f9c3098f18ea{}</style></defs><path id="a50e7edc-c63c-4b7d-8dba-db7b617c19ae" data-name="路径 156" class="f6c3a449-4ed8-4872-97e1-f9c3098f18ea" d="M165,34.88A50.79,50.79,0,0,0,83.25,92.72l-59.93,60a11.26,11.26,0,0,0-.05,15.92l.05.05,8.13,8a11.24,11.24,0,0,0,15.9.06h0v0l24-24.19,3,3a11.42,11.42,0,0,0,16,0l8-8a11.44,11.44,0,0,0,0-16l-2.94-2.94,11.79-11.79A50.8,50.8,0,0,0,165,34.91ZM141.39,82.8h0A17.13,17.13,0,1,1,141,58.55a17.14,17.14,0,0,1,.43,24.25l0,0Z"/></svg>