<svg id="f34e3e14-2869-44a4-a17f-326d45d6761b" data-name="图层 1" xmlns="http://www.w3.org/2000/svg" viewBox="0 0 200 200"><defs><style>.bf208d04-f200-445b-837a-d90cf400fa9d{}</style></defs><path id="f92c39d9-1089-43a3-aec3-5240d9595c20" data-name="路径 163" class="bf208d04-f200-445b-837a-d90cf400fa9d" d="M161,114h-19L124.2,80.82a20.11,20.11,0,0,0,6.22-14.65V39.79a19.4,19.4,0,0,0-19-19.79H86.05A19.41,19.41,0,0,0,67,39.79V66.17a20,20,0,0,0,7.51,15.75L57.4,114H39A19.42,19.42,0,0,0,20,133.8v26.4A19.42,19.42,0,0,0,39,180H64.39a19.42,19.42,0,0,0,19-19.79v-6.6h33.18v6.6a19.42,19.42,0,0,0,19,19.79H161a19.43,19.43,0,0,0,19-19.79V133.82A19.42,19.42,0,0,0,161,114Zm-44.36,19.78H83.38a20.13,20.13,0,0,0-6.75-15.12L94.08,86H105.2l17.7,33.15a20.12,20.12,0,0,0-6.31,14.71Z"/></svg>