<svg id="aa656df0-b90a-461e-912c-c2d2a4af3a87" data-name="图层 1" xmlns="http://www.w3.org/2000/svg" viewBox="0 0 200 200"><defs><style>.b0ce6251-9627-448b-9459-47fafb0726c9{}</style></defs><g id="b393e16e-52df-4213-b1b7-9de86abdedb8" data-name="组 226"><path id="ebe2dd97-8f2a-4a30-878d-842319374423" data-name="矩形 116" class="b0ce6251-9627-448b-9459-47fafb0726c9" d="M56,20h0A36,36,0,0,1,92,56V84a8,8,0,0,1-8,8H56A36,36,0,0,1,20,56h0A36,36,0,0,1,56,20Z"/><path id="a7e8d189-e912-4edb-9d18-9f4917a5c53a" data-name="矩形 117" class="b0ce6251-9627-448b-9459-47fafb0726c9" d="M144,92H116a8,8,0,0,1-8-8V56a36,36,0,0,1,36-36h0a36,36,0,0,1,36,36h0A36,36,0,0,1,144,92Z"/><path id="fb80e7e4-f561-4377-ad2d-8f0ea615d862" data-name="矩形 118" class="b0ce6251-9627-448b-9459-47fafb0726c9" d="M56,108H84a8,8,0,0,1,8,8v28a36,36,0,0,1-36,36h0a36,36,0,0,1-36-36h0A36,36,0,0,1,56,108Z"/><path id="a4302690-5ba8-48fc-8ad1-e80fa4a61e18" data-name="矩形 119" class="b0ce6251-9627-448b-9459-47fafb0726c9" d="M144,180h0a36,36,0,0,1-36-36V116a8,8,0,0,1,8-8h28a36,36,0,0,1,36,36h0A36,36,0,0,1,144,180Z"/></g></svg>