<svg id="b02e217d-0b4e-446a-852d-cb878670db5a" data-name="图层 1" xmlns="http://www.w3.org/2000/svg" viewBox="0 0 200 200"><defs><style>.f730a882-7ce1-40ef-9c9c-1df83c2a11fd{}</style></defs><path id="a2b9f135-1fd4-4f54-8f12-781d3b768ec6" data-name="路径 148" class="f730a882-7ce1-40ef-9c9c-1df83c2a11fd" d="M172,156h-8V110.1A24,24,0,0,0,146.6,87L116,78.28V44A16,16,0,0,0,94.06,29.14l-48,19.16A15.94,15.94,0,0,0,36,63.11V156H28a8,8,0,0,0,0,16H172a8,8,0,0,0,0-16Zm-46-44h20a6,6,0,0,1,0,12H126a6,6,0,0,1,0-12ZM66,80H86a6,6,0,0,1,0,12H66a6,6,0,0,1,0-12Zm0,32H86a6,6,0,0,1,0,12H66a6,6,0,0,1,0-12Z"/></svg>