<svg id="b4259079-57fc-4e06-bba9-06af37c20a80" data-name="图层 1" xmlns="http://www.w3.org/2000/svg" viewBox="0 0 200 200"><defs><style>.a91e125e-1b81-4a28-b822-a23f135ebaf1{}</style></defs><path id="e8282457-4464-4b2f-aae0-b0a5f5fc4457" data-name="路径 158" class="a91e125e-1b81-4a28-b822-a23f135ebaf1" d="M164.76,45.22,105.9,21a13,13,0,0,0-9.58-.12L35.55,44.06a12.84,12.84,0,0,0-8.28,12v46.32c0,18,13.29,50.69,65.29,76.32a12.92,12.92,0,0,0,10.81.26c52.75-23,69.36-60.26,69.36-78.84v-43A12.84,12.84,0,0,0,164.76,45.22ZM100,121.8H63.64a7.27,7.27,0,1,1,0-14.54H100a7.27,7.27,0,0,1,0,14.54Zm36.36-36.36H63.64a7.28,7.28,0,1,1,0-14.55h72.72a7.28,7.28,0,1,1,0,14.55Z"/></svg>