<svg id="a859b110-8910-44b9-8b0f-667cb562d20a" data-name="图层 1" xmlns="http://www.w3.org/2000/svg" viewBox="0 0 200 200"><defs><style>.e8b83ecd-300a-4e55-949e-92d9bc2d05f7{}</style></defs><g id="bbb05992-38f1-4591-9af9-77902b2425aa" data-name="组 227"><path id="fccd76a6-c5a8-4b5c-b091-e4fc6118addb" data-name="矩形 120" class="e8b83ecd-300a-4e55-949e-92d9bc2d05f7" d="M100,20h0a14.55,14.55,0,0,1,14.55,14.54V78.16A14.55,14.55,0,0,1,100,92.7h0A14.54,14.54,0,0,1,85.46,78.16V34.54A14.54,14.54,0,0,1,100,20Z"/><path id="f06ad8df-aba5-4a6f-9374-53418e5ad17e" data-name="路径 137" class="e8b83ecd-300a-4e55-949e-92d9bc2d05f7" d="M136.36,58.78v1.16a12.45,12.45,0,0,0,3,7.81,50.9,50.9,0,1,1-78.68,0,13.7,13.7,0,0,0,3-8.78h0A14.55,14.55,0,0,0,38,49.52a80,80,0,1,0,124.2.19,14.55,14.55,0,0,0-25.82,9.07Z"/></g></svg>