<svg id="e7b2fb6f-c607-4303-a611-022f1876c580" data-name="图层 1" xmlns="http://www.w3.org/2000/svg" viewBox="0 0 200 200"><defs><style>.b9032e32-c911-435f-8118-a7b798224b7d{}</style></defs><g id="f604b687-7930-4ee4-b5b0-ef4b937c8cbe" data-name="组 231"><path id="e11b77c2-032c-4e24-9337-8f64b1b3b68d" data-name="路径 153" class="b9032e32-c911-435f-8118-a7b798224b7d" d="M53.35,87.34a8.35,8.35,0,0,0,16.67,0h.1c-.08-1-.12-2.1-.12-3.16a43.4,43.4,0,0,1,86.67,0c0,1.06,0,2.11-.13,3.16h.13a7.63,7.63,0,0,0,0,.82,8.23,8.23,0,0,0,9.17,7,8,8,0,0,0,7.42-8.54c0-.06,0-.12,0-.19,0-.76,0-1.53,0-2.3a58.52,58.52,0,0,0-60-56.86,58.53,58.53,0,0,0-60,56.91c0,.82,0,1.64.06,2.44C53.37,86.88,53.35,87.11,53.35,87.34Z"/><path id="a21e9425-8113-49e7-81da-aecdb90fd4e0" data-name="路径 154" class="b9032e32-c911-435f-8118-a7b798224b7d" d="M130.72,94.42a8.22,8.22,0,0,0,9.08-7.13h0a23.91,23.91,0,0,0,0-6.21A26.41,26.41,0,0,0,110,59.13,25.6,25.6,0,0,0,86.83,86.94c0,.14,0,.28,0,.42h0a8.25,8.25,0,0,0,8.88,6.55,8,8,0,0,0,7.65-8.42v0h0a9.49,9.49,0,0,1,0-2.26,9.9,9.9,0,0,1,11-8.4,9.62,9.62,0,0,1,8.85,10.32.37.37,0,0,1,0,.11h0a5.4,5.4,0,0,1-.08.58,8,8,0,0,0,7.35,8.6Z"/><path id="a5b48d8a-a5de-4aa0-aa90-d34f96a55068" data-name="路径 155" class="b9032e32-c911-435f-8118-a7b798224b7d" d="M166.67,109.46H123.33v-6.32a10,10,0,0,0-20,0v6.32h-70A13,13,0,0,0,20,122.13h0v38a13,13,0,0,0,13.33,12.64H166.67A13,13,0,0,0,180,160.08v-38a13,13,0,0,0-13.32-12.67ZM50,150.6a9.5,9.5,0,1,1,10-9.49A9.76,9.76,0,0,1,50,150.6Zm33.33,0a9.5,9.5,0,1,1,10-9.49A9.76,9.76,0,0,1,83.33,150.6Zm33.34,0a9.5,9.5,0,1,1,10-9.49A9.76,9.76,0,0,1,116.67,150.6Z"/></g></svg>