<svg id="b63275d0-c109-4117-9ae4-6955e45f6849" data-name="图层 1" xmlns="http://www.w3.org/2000/svg" viewBox="0 0 200 200"><defs><style>.a75ce2ce-c7df-4967-abbb-d0112ed0186d{}</style></defs><g id="f88fa607-c9c5-43b4-b67b-9a5c1ad55106" data-name="组 232"><path id="a98ad186-ac30-4ddc-939a-54427d4f16cb" data-name="路径 159" class="a75ce2ce-c7df-4967-abbb-d0112ed0186d" d="M70,110.35a29,29,0,0,0,15.17-4.28l-.53-.55A53.38,53.38,0,0,1,73.94,48.57l.11-.27A28.77,28.77,0,0,0,70,48a31.19,31.19,0,0,0,0,62.33Z"/><path id="a6036ad7-e779-4345-8248-956a9e2c34da" data-name="路径 160" class="a75ce2ce-c7df-4967-abbb-d0112ed0186d" d="M66.73,120.76H50a30.64,30.64,0,0,0-30,31.17,10.18,10.18,0,0,0,10,10.38H50v-5.19a47.51,47.51,0,0,1,13.18-33.05A44.42,44.42,0,0,1,66.73,120.76Z"/><path id="b4648a4d-9e90-4b98-8566-1ebf2b77b59e" data-name="路径 161" class="a75ce2ce-c7df-4967-abbb-d0112ed0186d" d="M169.74,131.44h0A34.1,34.1,0,0,0,145,120.79H95a35.68,35.68,0,0,0-35,36.35v5.2a10.18,10.18,0,0,0,10,10.39H170a10.18,10.18,0,0,0,10-10.36v-5.23A36.85,36.85,0,0,0,169.74,131.44Z"/><ellipse id="aba6f15a-4d37-48fe-848c-caea2081c2de" data-name="椭圆 29" class="a75ce2ce-c7df-4967-abbb-d0112ed0186d" cx="120" cy="68.82" rx="40" ry="41.55"/></g></svg>