<svg id="b3c98b01-559e-4276-a168-442530a41017" data-name="图层 1" xmlns="http://www.w3.org/2000/svg" viewBox="0 0 200 200"><defs><style>.b1fc14c8-3663-413f-a208-2b718bc515bf{}</style></defs><g id="a206f23a-4856-4eb5-8f48-9b2186506e2c" data-name="组 230"><path id="e418eef8-0537-43e5-a94e-f6fbf5deb54d" data-name="路径 151" class="b1fc14c8-3663-413f-a208-2b718bc515bf" d="M165.09,76.32C165.09,44.44,135.72,20,99.83,20,65,20,34.57,44.44,34.57,76.32a76.51,76.51,0,0,0,22.84,56.32,74.81,74.81,0,0,0,42.42,25.54s16.31,2.13,43.5-25.5A66.22,66.22,0,0,0,165.09,76.32ZM100,106.92a21.74,21.74,0,1,1,21.74-21.73h0A21.73,21.73,0,0,1,100,106.92Z"/><path id="f8845c7c-7743-4464-a695-2b44192266a8" data-name="路径 152" class="b1fc14c8-3663-413f-a208-2b718bc515bf" d="M100,164.2c-23.9,0-32.59,4-32.59,7.9,0,4.74,8.73,7.9,32.59,7.9s32.6-3.16,32.6-7.9S123.9,164.2,100,164.2Z"/></g></svg>