<svg id="ee43c558-099c-4ff8-b803-7a18c8b9e7a8" data-name="图层 1" xmlns="http://www.w3.org/2000/svg" viewBox="0 0 200 200"><defs><style>.fae6e9ca-b052-43a8-9146-1b3c01582ad3{}</style></defs><g id="a9b2d617-e1e6-4d31-960d-007adf7c3f56" data-name="组 235"><ellipse id="af32ab5f-e413-4e5a-8319-0d043f14a800" data-name="椭圆 31" class="fae6e9ca-b052-43a8-9146-1b3c01582ad3" cx="84.47" cy="61.89" rx="32.99" ry="34.62"/><path id="a2f271d4-0ba6-4f3a-a950-d463383438f7" data-name="路径 164" class="fae6e9ca-b052-43a8-9146-1b3c01582ad3" d="M113.24,85.59a2,2,0,0,0,.08,2.59,24.29,24.29,0,0,0,18.06,8h0a24.42,24.42,0,0,0,17.83-7.78,27.05,27.05,0,0,0,7.27-18.28,25.79,25.79,0,0,0-24.81-26.65h-.25a23.75,23.75,0,0,0-10.51,2.39,2.63,2.63,0,0,0-1.31,3.21A38.29,38.29,0,0,1,113.24,85.59Z"/><path id="a917f4ba-b7ae-4099-821a-6d8dcfff4c9a" data-name="路径 165" class="fae6e9ca-b052-43a8-9146-1b3c01582ad3" d="M135.9,100.5h-7.27a1.5,1.5,0,0,0-1.46,1.54,1.57,1.57,0,0,0,.73,1.31A52.16,52.16,0,0,1,152,147.78v11a14.41,14.41,0,0,1-2.39,8,1.55,1.55,0,0,0,.34,2.11,1.38,1.38,0,0,0,.83.28h17.27A12.23,12.23,0,0,0,180,156.67v-9.86A45.25,45.25,0,0,0,135.9,100.5Z"/><g id="a23c4847-7bee-48cd-92a5-b45422631e1e" data-name="组 234"><path id="aad66b67-ae45-4f73-8481-010357e6e621" data-name="路径 166" class="fae6e9ca-b052-43a8-9146-1b3c01582ad3" d="M100.29,98.47H74.34A55.72,55.72,0,0,0,20,155.5a16.86,16.86,0,0,0,16.41,17.23H135.1A13.24,13.24,0,0,0,148,159.2V148.5A49,49,0,0,0,100.29,98.47ZM139.06,146,123.9,163.2a5.85,5.85,0,0,1-.61.61,6.63,6.63,0,0,1-9.35-.61L98.77,146a6.74,6.74,0,0,1-.52-8.19l6.29-9.37a6.65,6.65,0,0,1,5.52-3h17.72a6.62,6.62,0,0,1,5.51,3l6.3,9.37A6.71,6.71,0,0,1,139.06,146Z"/><path id="e4a11818-0ab5-4e86-b49f-37cfeea5623d" data-name="路径 167" class="fae6e9ca-b052-43a8-9146-1b3c01582ad3" d="M125.6,141.92l-6.68,6.69-6.68-6.69a2.91,2.91,0,0,0-4.12,4.12l8.73,8.72a2.91,2.91,0,0,0,4.11,0h0l8.73-8.72a2.91,2.91,0,0,0-4.12-4.12Z"/></g></g></svg>