<svg id="edad2552-7719-4633-94fd-0bd0a79d406a" data-name="图层 1" xmlns="http://www.w3.org/2000/svg" viewBox="0 0 200 200"><defs><style>.ef80104f-4ea1-48db-9962-9e13ad95031e{}</style></defs><g id="b8cb94c8-ef45-4bb3-be02-9742e163e741" data-name="组 228"><path id="b74161a8-3f76-4998-916e-a87824a1c0f2" data-name="路径 138" class="ef80104f-4ea1-48db-9962-9e13ad95031e" d="M100,20A65.45,65.45,0,0,0,34.55,85.45C34.55,121.61,100,180,100,180s65.45-58.39,65.45-94.55A65.45,65.45,0,0,0,100,20Zm0,116.36a50.91,50.91,0,1,1,50.91-50.91A50.91,50.91,0,0,1,100,136.36Z"/><path id="b70168e0-4bc5-4410-9212-4a2a9324d4cd" data-name="路径 139" class="ef80104f-4ea1-48db-9962-9e13ad95031e" d="M79,62.08h42.1a2.86,2.86,0,1,0,0-5.72H79a2.86,2.86,0,0,0,0,5.72Z"/><path id="a24ab091-2cd0-40c9-9b34-8bf66b66512f" data-name="路径 140" class="ef80104f-4ea1-48db-9962-9e13ad95031e" d="M125.42,68.28a5.35,5.35,0,0,0-5-3.34H79.53a5.35,5.35,0,0,0-5,3.34l-3.3,8.21a5,5,0,0,0-.17,3.22A7.27,7.27,0,0,0,85,80.12a.46.46,0,0,1,.58-.28.48.48,0,0,1,.28.28,7.27,7.27,0,0,0,13.74,0,.45.45,0,0,1,.58-.28.47.47,0,0,1,.27.28,7.27,7.27,0,0,0,13.75,0,.45.45,0,0,1,.56-.29.46.46,0,0,1,.29.29A7.35,7.35,0,0,0,121.89,85a7.26,7.26,0,0,0,7-5.27,5,5,0,0,0-.18-3.22Z"/><path id="bb758712-b0a3-41a9-bbe4-b3241b2d8b95" data-name="路径 141" class="ef80104f-4ea1-48db-9962-9e13ad95031e" d="M120.78,89.61a4.16,4.16,0,0,0-4.16,4.16,4.16,4.16,0,0,1-4.15,4.16H87.53a4.17,4.17,0,0,1-4.16-4.16,4.16,4.16,0,1,0-8.31,0v12.46a8.32,8.32,0,0,0,8.31,8.32h33.25a8.31,8.31,0,0,0,8.31-8.3V93.77A4.15,4.15,0,0,0,120.78,89.61Z"/></g></svg>